/* XPM */
static char *result[] = {
/* columns rows colors chars-per-pixel */
"64 64 149 2 ",
"   c #000000",
".  c #0A0C0D",
"X  c #0F1212",
"o  c #121515",
"O  c #131718",
"+  c #14191A",
"@  c #1B1D1D",
"#  c #191F20",
"$  c #1C2223",
"%  c gray14",
"&  c #222A2B",
"*  c #2E2E2E",
"=  c #262F31",
"-  c #273032",
";  c #2B3334",
":  c #2D3738",
">  c #2E393A",
",  c #353535",
"<  c #303B3C",
"1  c gray23",
"2  c #333F41",
"3  c #374346",
"4  c #384446",
"5  c #394649",
"6  c #3C4A4C",
"7  c #3F4D50",
"8  c gray25",
"9  c #494949",
"0  c #404F52",
"q  c #425154",
"w  c #455558",
"e  c #4A5B5E",
"r  c gray33",
"t  c #5D5D5D",
"y  c #4C5E62",
"u  c #4F6165",
"i  c #536466",
"p  c #536669",
"a  c #56696D",
"s  c #596C6F",
"d  c #5A6E72",
"f  c #5C7073",
"g  c #5E7378",
"h  c #646464",
"j  c #6B6B6B",
"k  c #607577",
"l  c #60767B",
"z  c #647A7C",
"x  c #6B7B7B",
"c  c #747474",
"v  c #7E7E7E",
"b  c #667C81",
"n  c #698083",
"m  c #6C848A",
"M  c #748D8F",
"N  c #798F8F",
"B  c #748E93",
"V  c #788F94",
"C  c #79949A",
"Z  c #7C989D",
"A  c #7E9AA0",
"S  c #5FCDE4",
"D  c #66CFE5",
"F  c #6DD2E7",
"G  c #73D4E8",
"H  c #79D6E9",
"J  c #7CDAED",
"K  c #818181",
"L  c gray55",
"P  c #80979B",
"I  c #829C9E",
"U  c #949494",
"Y  c #9B9B9B",
"T  c #819EA3",
"R  c #84A1A4",
"E  c #88A0A5",
"W  c #85A3A9",
"Q  c #8AA6AC",
"!  c #8CABAF",
"~  c #8EADB3",
"^  c #90AFB6",
"/  c #8FB0B0",
"(  c #91B1B3",
")  c #95B6BC",
"_  c #96B8BF",
"`  c #9CBABE",
"'  c gray65",
"]  c #AEAEAE",
"[  c #B4B4B4",
"{  c #BBBBBB",
"}  c #97B9C0",
"|  c #9BBEC4",
" . c #9FC2C6",
".. c #9FC3CA",
"X. c #A4C4C4",
"o. c #AAC5C4",
"O. c #A1C4CB",
"+. c #A4C9CD",
"@. c #AACECF",
"#. c #A6CAD2",
"$. c #A9CFD6",
"%. c #ABD1D6",
"&. c #ACD3DB",
"*. c #B3D4D4",
"=. c #B2D6DD",
"-. c #B1D9D9",
";. c #BADDDF",
":. c #88DBED",
">. c #94DFEF",
",. c #B4DDE5",
"<. c #B9DDE4",
"1. c #95E0EF",
"2. c #96E1F1",
"3. c #99E4F3",
"4. c #9EEAFB",
"5. c #BBE4E7",
"6. c #B7E1E9",
"7. c #BBE4EC",
"8. c #BDE8ED",
"9. c #ACE7F4",
"0. c #ADE8F4",
"q. c #A0EDFE",
"w. c #B2EAF5",
"e. c #BEE9F1",
"r. c #B2EEF9",
"t. c #B6F3FD",
"y. c #BAF7FE",
"u. c #BBF9FF",
"i. c #C6C6C6",
"p. c gray81",
"a. c #D4D4D4",
"s. c gray87",
"d. c #C0E4E6",
"f. c #C0E5EC",
"g. c #C3EDEE",
"h. c #C2ECF5",
"j. c #C2EFF8",
"k. c #C4F0F6",
"l. c #CAF4F4",
"z. c #C5F1FA",
"x. c #CAF4FC",
"c. c #CDFAFE",
"v. c #D1F5FC",
"b. c #D3FEFE",
"n. c #DBFFFF",
"m. c #E5E5E5",
"M. c #E2FFFF",
"N. c #F4F4F4",
"B. c #FEFEFE",
/* pixels */
"S S S S D S S S S S D S S S S S S S S S S S D S S D S S D S S S S S S S S S S S D S S S S S S S S S S S D S S S S S D S S S S S ",
"S D F G H H H H H H H H H H H H H H H H H H H H G H H H J J J J J H H H H H H H H H H H H H H H H H H H H H H H H H H H H H H H ",
"D F H :.>.2.2.2.>.>.>.>.>.>.>.>.2.>.>.2.>.2.>.>.>.>.>.3.4.4.q.4.4.2.>.>.>.>.>.>.>.>.>.>.>.>.>.>.>.>.>.>.>.>.>.>.>.>.>.>.>.>.>.>.",
"S G :.3.9.w.w.w.9.9.0.0.9.9.9.9.9.9.9.9.9.9.9.9.0.0.0.r.t.y.u.y.t.r.9.9.0.0.0.9.0.0.0.0.9.9.0.0.0.0.0.0.0.0.0.9.9.9.9.0.0.9.9.9.",
"S H >.9.h.z.z.j.z.e.j.j.j.z.j.e.h.h.h.e.j.j.j.j.t.j.h.j.z.z.j.x.z.j.j.j.t.j.j.j.z.j.j.j.z.h.h.j.e.z.z.j.e.z.j.j.h.h.h.h.e.e.z.t.",
"S H >.w.z.v.v.v.x.x.x.x.x.x.c.c.x.x.x.x.z.z.x.x.v.x.x.h.<.,.=.,.7.j.x.v.v.x.x.c.x.x.x.z.z.x.x.x.z.c.x.x.c.c.x.z.x.x.z.x.c.x.x.x.",
"S H >.w.z.v.v.v.x.x.b.v.b.b.b.x.v.x.x.x.x.x.x.b.n.n.x.<.| T P Q O.f.b.n.n.n.b.b.v.x.x.x.z.x.z.x.x.c.b.b.b.v.x.x.x.x.v.x.x.v.x.x.",
"S H 1.w.k.v.v.z.z.x.x.b.n.b.b.b.x.x.z.z.l.z.c.b.n.n.b.#.V i q j T ,.b.n.M.n.n.b.b.v.x.l.x.z.z.z.x.b.b.n.b.b.c.x.z.z.h.x.z.z.x.z.",
"D H >.0.j.x.x.z.j.z.x.c.c.c.c.c.x.z.z.z.z.z.x.c.n.b.j.( p & O : x ..x.n.n.n.c.c.c.c.j.j.z.z.z.z.z.x.c.c.c.c.x.z.z.z.z.z.z.z.l.j.",
"S H 2.0.j.z.v.z.z.j.h.7.,.,.<.7.k.z.z.z.x.z.z.x.l.h.%.C 6 .   O e Q ,.g.g.8.6.6.7.h.j.z.x.z.z.z.k.w.6.6.6.7.e.z.z.z.z.j.z.z.z.j.",
"S H >.0.h.x.x.b.x.h.&._ W A ~ #.8.x.b.n.c.c.z.5.@.) A a =     . 2 x W ^ ( ! Q ~ ..,.z.b.b.b.b.x.8.#.~ A A  .&.8.x.z.c.j.z.j.j.z.",
"S H >.9.j.x.v.b.c.7.) m y 7 d W =.b.n.M.n.n.z.#.I k e 2 O       $ 5 e p p p u f Z +.j.b.M.M.n.b.,.R d 7 y m _ 7.x.v.c.j.z.z.z.z.",
"S H >.9.z.c.b.b.c.6.W y $ O 2 b #.c.n.M.M.b.7.~ f : @ o .       . O $ $ $ $ $ : d ~ e.b.M.M.M.c.#.n > O $ y W 6.x.b.c.z.z.z.z.z.",
"S H >.9.z.x.b.b.c.,.A q O   $ a ) 8.v.b.v.z.%.C 0 o                           o 7 C %.z.v.n.v.8.) a $   O 7 A 6.c.b.c.x.j.z.z.j.",
"D H >.9.e.x.b.b.c.6.~ d 2 $ 2 p C ) X.o.o. .R d ;                               ; d T | o.o.o.) A p 2 $ > s / 6.c.b.v.z.z.z.z.h.",
"S H >.9.j.x.b.c.x.8.+.R b d p a f g x x x k p 3 #                               # 3 p l x x k k d a p d n R #.e.x.x.x.z.j.z.z.z.",
"S H >.0.e.z.x.c.z.h.5.-.+.) C f 7 ; : : ; : & @ .                               . $ & ; : , ; : 7 f C } +.-.5.k.z.z.z.z.z.z.j.z.",
"S H >.9.z.c.x.z.z.z.x.b.c.8.) g ;                                                               - g } 7.c.b.x.z.z.z.z.j.z.z.z.j.",
"S H >.9.h.x.x.z.j.z.b.M.M.c.O.l &                                                               & l ..c.M.M.c.z.k.z.j.z.h.z.z.j.",
"S H >.9.h.x.x.z.z.x.b.M.M.n.#.b &                                                               & b #.b.M.M.b.x.z.k.k.z.z.z.j.z.",
"S H 2.9.h.x.x.j.k.c.b.M.M.b.#.b -                                                               - b #.b.M.M.b.x.j.j.j.j.z.z.j.z.",
"S H 2.9.h.x.x.z.z.z.c.b.b.z.| z ;                                                               ; l | z.n.b.c.z.z.j.z.z.z.z.z.j.",
"S H >.9.h.x.x.x.z.k.k.g.5.&.W p &             . o @ @ @ @ @ @ o o                               & p W %.5.g.z.z.x.z.z.z.z.j.j.z.",
"S H >.9.h.x.v.v.z.h.,.X.! C g 6 $           . % 8 r t t t t t 9 * o                             $ 6 g C / +.5.c.b.b.c.x.j.j.j.z.",
"S H >.9.e.c.b.v.c.7.O.Z d q 3 $ X           o 1 j U ' ' ' ' ' v r %                             X $ 3 q f R &.x.n.b.b.x.z.h.j.j.",
"S H >.9.z.x.b.b.c.6.~ d : O X .             @ r Y p.m.m.m.m.m.{ c ,                               . X O > g ) e.b.n.c.x.z.y.j.j.",
"D H >.9.j.x.b.n.c.6.W e +                   @ h ] N.B.B.B.B.B.p.K 1                                     o w Z $.h.l.x.z.z.j.z.z.",
"S H >.9.j.x.n.n.b.7.Q e X                   @ h { B.B.B.B.B.B.s.U 8                                     . : a C ( X.-.e.z.z.c.x.",
"S G >.9.e.x.n.M.n.j.~ u O                   % h { B.B.B.B.B.B.m.L 8                                       @ : 7 p M ) 6.c.c.c.z.",
"S H >.9.e.b.n.M.n.j.( p $                   @ h { N.B.B.B.B.B.a.L 8 .                                       X X $ u A &.x.b.c.x.",
"S H >.9.j.x.b.b.x.,.W e $                   @ t ' m.N.B.B.N.N.i.v ,                                             + 7 C %.x.b.c.c.",
"S H 3.r.z.j.d.*.X.Q b 6 O                   o 9 K [ i.i.i.i.i.' h *                                     . . + $ > a W ,.x.c.c.z.",
"S H 4.t.z.<.o.I z i 6 & .                   X * r c K K K K K h 8 @                                     X & 6 i k I  .6.z.x.c.z.",
"S J 4.y.x.;.Q a : $ O .                       o % , , 1 , , , * @ .                                     O 5 b Q X.%.6.e.z.x.x.z.",
"S J q.u.x.&.P q o                                 .       .                                             $ y W ,.x.b.c.z.k.j.z.z.",
"D J 4.y.z.,.E i & o . .                                                                                 $ p ^ h.b.n.b.c.k.j.y.z.",
"S J 4.t.z.6.` N p 7 : O                                                                                 O y ~ j.n.n.b.z.z.z.j.z.",
"S J 3.0.z.h.;.o.( C a : .                                                                               X e Q 7.b.n.b.c.j.j.z.z.",
"S H 2.0.k.x.v.l.g.%.A w O                                                                               + e W 6.c.b.b.z.j.j.j.z.",
"S J 1.9.z.x.n.n.b.h._ l > O X .                                                                   . o O : f ~ 6.c.b.x.x.j.l.z.z.",
"S H >.9.e.x.n.n.n.c.#.T f q 2 $ o                                                               X & 3 q d Z O.7.x.c.c.z.z.z.z.z.",
"S H >.9.y.x.b.b.c.c.6.+./ Z g 6 $                                                               # 6 f C / X.=.h.z.x.x.z.z.k.y.z.",
"S H >.9.j.z.x.x.c.j.z.g.5.%.W p &                                                               & p W %.5.g.j.j.z.z.z.z.j.j.j.j.",
"S H >.9.h.x.v.z.z.z.c.n.n.z.| z ;                                                               ; z | z.b.n.c.z.z.z.z.z.z.j.l.j.",
"D H >.0.z.x.x.z.j.x.b.M.M.b.#.b ;                                                               = b #.b.M.M.n.z.z.j.j.z.z.j.z.z.",
"S H >.0.h.z.x.z.h.c.b.M.M.b.#.b &                                                               & b #.b.M.M.b.c.j.h.z.j.z.z.z.z.",
"S H >.9.h.l.x.z.j.z.b.n.M.b.O.l &                                                               & l O.c.M.n.v.x.z.h.z.z.z.j.j.z.",
"S H >.9.h.x.x.x.z.z.c.b.c.e.) g :                                                               ; g ) e.c.b.x.z.z.z.j.z.z.j.j.l.",
"S H >.9.j.x.x.x.x.h.5.-.+.) C f 0 ; ; : ; - & @ .                               . # & ; ; ; ; ; 6 d C ) +.-.5.e.z.x.z.z.z.z.k.z.",
"S H >.9.j.x.b.v.c.7.+.R n a p a f f x x x z p 5 $                               @ 3 p k x x x f f a p s n R +.e.x.x.x.z.z.y.z.z.",
"D H >.9.h.x.b.b.x.6.~ d < & > p Z ) o.o.o. .A s :                               ; f W ` o.o.X.) C p 2 $ > s ^ 6.c.c.c.x.z.j.z.z.",
"S H >.9.j.x.b.b.c.6.T q o   $ d ) 7.l.n.v.l.%.C 7 X                           X 7 C %.l.l.n.c.e.} s &   O w A ,.c.c.c.x.z.z.z.k.",
"S G >.9.j.x.b.n.c.,.W y $ o > n #.c.n.M.M.n.e.^ d : $ $ $ $ $ O .       . X $ : f ( 8.b.M.M.M.c.#.b 2 X $ y W 6.x.b.c.c.j.z.z.j.",
"D H 2.9.j.x.b.b.x.7.} m y q f W ,.b.n.M.M.b.j.O.Z d u p p p y 4 $       @ < e g A #.z.b.M.M.n.b.,.W d w y m } 7.x.x.c.z.z.j.j.z.",
"S H >.9.j.x.x.x.x.e.&.} W A ~ #.7.c.b.b.b.x.j.,.O.~ ~ ~ ( ( E z 3 .     - a Z ) $.5.z.b.b.b.b.x.7.#.~ A W } &.e.x.x.x.z.z.j.z.k.",
"S G >.9.j.x.x.x.z.y.e.7.6.,.6.7.j.z.z.z.x.z.h.h.7.6.,.7.g.g.6.Q e O   . 6 C %.8.l.x.z.z.z.x.z.x.e.e.,.,.,.7.e.e.z.z.z.z.j.z.j.z.",
"D H >.0.h.x.x.x.z.z.j.c.c.x.c.x.x.j.j.j.j.z.j.x.x.c.c.b.n.n.c...z : O & p ~ j.b.n.b.x.z.z.z.j.j.x.x.c.c.b.x.x.z.z.z.z.z.z.j.j.z.",
"S H >.0.h.x.x.h.j.z.c.c.b.b.c.c.x.z.j.j.j.j.x.x.c.b.b.n.n.n.c.=.A a 7 u B #.x.n.b.b.x.e.j.y.j.x.z.c.c.b.b.x.x.z.j.y.j.z.l.j.z.z.",
"S H >.0.h.x.x.x.z.j.x.c.c.c.c.x.z.z.j.j.z.z.z.x.c.c.c.b.b.b.c.7...W C A } ,.x.c.c.x.x.z.j.j.j.j.z.c.c.c.c.x.x.z.j.j.j.j.z.j.j.z.",
"S H >.0.h.z.x.z.z.l.j.x.z.z.x.z.z.z.z.z.z.z.j.z.z.x.z.z.x.c.j.h.6.,.$.&.6.e.z.x.x.x.j.z.j.j.x.j.z.z.z.z.z.x.z.z.k.z.z.z.z.z.z.z.",
"S H >.9.j.x.x.x.z.j.l.z.z.z.z.z.z.z.h.z.j.z.z.j.z.j.j.z.z.j.z.j.x.x.x.x.z.z.z.z.z.z.l.j.k.z.j.z.z.y.z.z.z.j.z.z.z.j.z.z.z.z.z.z.",
"S H >.9.h.x.x.z.z.j.j.j.z.z.y.z.z.j.z.z.z.z.z.z.z.y.z.j.z.j.j.c.c.c.c.b.c.x.z.y.j.z.j.j.z.j.z.z.z.z.z.z.z.z.z.h.z.z.z.z.j.z.z.h.",
"D H >.9.h.z.v.z.z.z.z.z.z.z.k.z.z.z.h.z.z.z.z.z.j.j.j.z.j.j.y.x.c.c.c.c.c.c.z.j.j.j.z.j.j.z.z.j.j.z.h.z.h.z.j.z.h.z.h.z.z.z.z.z.",
"S H >.9.h.x.x.x.z.z.j.z.j.j.z.j.z.z.z.z.j.z.j.z.z.j.l.z.z.z.z.z.z.x.c.x.z.z.j.z.z.z.z.z.z.j.j.z.z.z.z.z.z.z.z.z.z.z.z.z.j.z.j.z."
};
