/* XPM */
static char *result[] = {
/* columns rows colors chars-per-pixel */
"64 64 177 2 ",
"   c #04000F",
".  c #050011",
"X  c #090015",
"o  c #0D051A",
"O  c #0F081D",
"+  c #11091E",
"@  c #140E22",
"#  c #161126",
"$  c #1A162A",
"%  c #16182A",
"&  c #1D1A2E",
"*  c #1F1C31",
"=  c #201E32",
"-  c #222034",
";  c #262539",
":  c #28273B",
">  c #262E3F",
",  c #2A2A3D",
"<  c #2D2E41",
"1  c #2E3043",
"2  c #2F3B4A",
"3  c #303245",
"4  c #333548",
"5  c #353A4C",
"6  c #393C4E",
"7  c #3A3F51",
"8  c #4A3451",
"9  c #3C4153",
"0  c #3F4658",
"q  c #40475A",
"w  c #434B5D",
"e  c #56425F",
"r  c #5D4C68",
"t  c #495364",
"y  c #4D5768",
"u  c #4E596A",
"i  c #535D6D",
"p  c #7D4E77",
"a  c #566272",
"s  c #5A6575",
"d  c #536876",
"f  c #566978",
"g  c #5D6B7C",
"h  c #616C7B",
"j  c #606F80",
"k  c #766C87",
"l  c #647483",
"z  c #627B87",
"x  c #667988",
"c  c #875A83",
"v  c #9A6F99",
"b  c #AF679D",
"n  c #B36CA2",
"m  c #A07BA2",
"M  c #BE77AD",
"N  c #DA6DB2",
"B  c #C87FB6",
"V  c #D773B6",
"C  c #D873B6",
"Z  c #D478B7",
"A  c #D777B8",
"S  c #D976B8",
"D  c #D77BBA",
"F  c #DB7BBB",
"G  c #E176BB",
"H  c #E27FC1",
"J  c #6D818E",
"K  c #6F8291",
"L  c #738896",
"P  c #768C9A",
"I  c #798E9C",
"U  c #7E96A2",
"Y  c #66CFE5",
"T  c #6DD2E7",
"R  c #74D4E8",
"E  c #79D6E9",
"W  c #7CDAED",
"Q  c #8299A5",
"!  c #839CA9",
"~  c #899EAA",
"^  c #9F9FB8",
"/  c #B48FB7",
"(  c #86A0AD",
")  c #8CA3AF",
"_  c #8CA7B4",
"`  c #8EADB9",
"'  c #92A9B4",
"]  c #91ADBA",
"[  c #93B1BA",
"{  c #98B6BF",
"}  c #CA8ABD",
"|  c #D682BE",
" . c #BA9CC2",
".. c #95B4C1",
"X. c #98B7C4",
"o. c #9BBAC4",
"O. c #9CBDC9",
"+. c #A9AEC6",
"@. c #A2BEC9",
"#. c #D586C0",
"$. c #D48CC3",
"%. c #D393C7",
"&. c #D395C8",
"*. c #D29CCC",
"=. c #D1A0CE",
"-. c #CFABD4",
";. c #D0A4D0",
":. c #CEB1D7",
">. c #CDB5D9",
",. c #CDBBDC",
"<. c #D0B7DA",
"1. c #D2BCDD",
"2. c #98C2CA",
"3. c #A3C6CE",
"4. c #A3C6D2",
"5. c #A6CAD4",
"6. c #AACED9",
"7. c #ADD3DB",
"8. c #B4D7DE",
"9. c #8BDCED",
"0. c #94DFEF",
"q. c #AFD6E0",
"w. c #B3D7E0",
"e. c #B5D9E2",
"r. c #B9DEE7",
"t. c #96E0EF",
"y. c #9EE1EF",
"u. c #96E1F0",
"i. c #99E3F2",
"p. c #9BE8F7",
"a. c #9EECFB",
"s. c #B9E1E4",
"d. c #BAE3EC",
"f. c #BEE8EE",
"g. c #A4E4F1",
"h. c #ABE7F4",
"j. c #ADE8F4",
"k. c #B3E9F5",
"l. c #BBECF4",
"z. c #BDEEF9",
"x. c #B6F3FF",
"c. c #BDF5FD",
"v. c #BAF8FF",
"b. c #CCC0DF",
"n. c #CBC4E1",
"m. c #C1CBE1",
"M. c #CACCE6",
"N. c #D1C1E0",
"B. c #C6D3E9",
"V. c #C9D5EA",
"C. c #C7DDEF",
"Z. c #C8D9EC",
"A. c #D0D1E8",
"S. c #C7DFF0",
"D. c #CDDDF0",
"F. c #C1E6EE",
"G. c #C6E4F2",
"H. c #CDE5F4",
"J. c #C4EAF5",
"K. c #C9EFF6",
"L. c #C1EFF9",
"P. c #D1E1F0",
"I. c #D0EBF5",
"U. c #C6F3F7",
"Y. c #C4F1FA",
"T. c #CAF3FB",
"R. c #C2F9FE",
"E. c #CDFCFF",
"W. c #D1F3FA",
"Q. c #DDF6FB",
"!. c #D2FFFF",
"~. c #D9FFFF",
"^. c #E0F7FC",
"/. c #E4F9FD",
"(. c #EEFBFD",
"). c #F0FBFD",
"_. c #FFFFFF",
/* pixels */
"_._._._._._._._._._._._._._._._._._._._._._._._._._._._._._._._._._._._._._._._._._._._._._._._._._._._._._._._._._._._._.(.Q.L.",
"_._.).).).).(.(.).).).).).).).).).).).).).).).).).).).).).).).).).).).).).).).).).).).).(.).(.).).).).).).).).).).).).).(.Q.H.k.",
"_._.)././.Q.Q.^.^.Q.^.^.^.^.Q.^.^.^.^.Q.Q.^.^.^.^.^.Q.^.^.^.^.^.^.Q.^.^.^.^.Q.^.^.^.^.Q.^.^.^.^.^.^.Q.^.^.^.^.^.^./././.Q.K.k.y.",
"_.)./.Q.W.W.T.W.W.W.W.W.W.W.W.W.W.W.W.W.W.W.W.W.W.W.W.W.W.W.W.T.W.W.W.W.W.W.W.W.W.W.W.W.W.W.W.W.W.W.W.W.W.W.W.W.W.W.Q.W.T.l.g.9.",
"_.).^.W.T.L.L.L.U.Y.K.U.Y.Y.T.Y.U.U.L.Y.Y.U.T.L.Y.K.U.U.Y.Y.Y.U.Y.U.Y.U.U.K.L.Y.K.L.T.U.T.Y.Y.T.L.T.L.T.Y.Y.Y.Y.U.T.T.T.Y.j.t.E ",
"_.).Q.W.Y.z.z.z.L.L.z.L.L.L.L.L.z.Y.Y.Y.Y.z.Y.L.c.Y.z.Y.c.Y.U.z.z.Y.c.Y.Y.c.Y.L.c.L.L.L.L.L.L.L.L.L.L.L.L.L.L.L.L.T.T.Y.z.h.t.R ",
"_.(.Q.T.L.z.z.z.L.L.L.L.L.z.Y.c.c.c.R.c.c.c.c.c.c.Y.c.R.Y.c.c.R.Y.v.Y.c.v.Y.c.c.c.z.L.L.L.z.L.L.L.L.L.L.L.L.L.L.L.L.Y.T.z.g.9.R ",
"_.(.^.W.Y.z.z.L.L.L.L.L.L.L.c.Y.R.c.R.R.v.Y.R.R.Y.v.R.v.c.R.R.c.R.R.v.R.R.R.v.Y.R.Y.L.L.L.L.L.L.L.L.L.L.L.L.L.L.L.K.T.U.z.h.t.R ",
"_.).^.W.Y.L.L.L.L.L.Y.L.Y.L.Y.Y.Y.R.Y.Y.R.Y.Y.R.R.Y.R.Y.Y.Y.R.Y.Y.Y.R.Y.Y.R.R.Y.R.L.Y.L.Y.Y.L.L.K.L.L.Y.L.Y.L.T.Y.T.T.T.L.j.0.E ",
"_.).^.W.Y.L.z.L.L.Y.L.Y.Y.U.L.J.J.K.J.J.J.J.J.J.J.J.J.G.K.J.J.H.J.J.J.J.J.G.G.J.J.K.L.Y.Y.Y.T.L.Y.L.T.Y.Y.K.L.L.L.T.T.T.L.j.0.E ",
"_.).^.W.T.L.L.Y.T.L.T.Y.T.L.H.C.M.n.n.n.M.M.M.M.M.M.M.M.M.M.A.M.M.M.M.M.M.M.M.M.C.G.J.Y.Y.Y.Y.L.L.Y.Y.L.Y.L.Y.Y.L.T.T.T.L.j.0.E ",
"_.).^.W.Y.L.L.L.L.Y.Y.R.Y.L.S.n.>.=.=.=.=.-.-.-.-.-.-.-.-.-.-.-.-.-.-.-.;.;.-.:.n.V.J.Y.Y.R.Y.Y.L.Y.K.L.L.T.L.Y.K.T.T.T.L.j.0.E ",
"_.).Q.W.T.L.L.L.Y.Y.Y.R.R.J.V.>.*.| | D | $.$.$.$.$.$.$.} | %.} $.$.$.$.| | $.%.-.M.G.Y.R.R.Y.Y.T.K.Y.L.L.L.T.K.K.T.T.T.z.j.0.E ",
"_.).^.W.Y.L.z.L.Y.Y.Y.R.R.K.V.>.%.D S C S D Z V A A A A D Z F F A V A V V V V #.=.n.G.Y.R.R.Y.Y.L.L.Y.Y.T.L.L.L.L.T.T.K.L.j.0.E ",
"_.).^.W.Y.L.z.L.Y.Y.R.R.R.K.C.,.;.%.| S S C N N N C C C C C C C S C C N N N N D *.n.S.R.R.R.Y.K.L.Y.L.T.L.Y.Y.K.L.T.T.T.L.j.0.E ",
"_.).^.W.Y.L.L.L.K.Y.Y.Y.Y.L.G.V.b.:.=.$.D C N N N C S S C C C C V S V C C N N D =.b.G.Y.R.R.Y.L.Y.K.L.L.L.T.L.L.L.T.T.T.z.j.0.E ",
"_.).^.W.Y.L.z.L.L.L.T.Y.Y.Y.L.H.G.V.n.;.$.V N N N S D D D S S S D A D A C C S D =.n.G.R.R.R.T.L.Y.L.L.K.T.L.L.L.K.T.T.T.L.j.0.E ",
"_.).^.W.T.L.L.L.T.L.K.L.L.Y.Y.R.R.Y.C.,.&.| C C S F D D D D D D D D D D V V A #.;.n.G.Y.R.R.Y.Y.L.T.L.Y.L.L.T.L.L.T.T.T.L.j.0.E ",
"_.).Q.W.Y.L.L.L.T.L.K.L.Y.Y.Y.R.R.R.J.M.:.&.| | | F D D D D D D D D D A V C S #.;.n.G.Y.R.R.Y.Y.K.L.Y.Y.L.T.K.L.L.T.T.T.L.j.0.E ",
"_.).^.W.Y.L.L.L.L.Y.L.L.L.Y.R.R.R.R.K.S.M.,.-.*.} | S Z S D D | D D A A V C S #.;.n.G.T.R.R.Y.L.Y.L.T.L.Y.L.Y.L.T.T.T.K.z.j.0.E ",
"_.).^.W.T.L.L.L.L.Y.L.T.L.K.T.R.R.Y.Y.L.J.C.M.>.=.| S C C D D D D D D D V C S #.;.n.G.Y.R.R.K.T.L.Y.L.L.K.Y.L.T.L.K.T.T.L.j.0.E ",
"_.).^.W.Y.L.L.L.Y.L.Y.L.L.L.L.L.Y.Y.Y.R.R.Y.G.b.;.| S C C S D D D D D D C C S #.;.n.G.Y.R.R.Y.L.L.Y.T.L.Y.L.Y.Y.T.T.T.T.L.j.0.E ",
"_.).^.W.Y.L.L.L.T.K.T.L.T.L.T.L.Y.Y.Y.Y.Y.K.C.b.=.| C C S D | D D D D D S C A #.;.n.G.Y.R.R.Y.Y.T.K.Y.Y.Y.L.L.L.L.T.T.T.z.j.0.E ",
"_.).^.W.Y.L.L.L.L.L.L.L.T.L.Y.R.R.Y.L.J.G.V.n.-.&.| D C S D D D D D D D S C S #.;.n.G.R.R.R.Y.Y.L.L.L.Y.L.T.K.Y.L.K.T.T.L.j.0.E ",
"_.).Q.W.T.L.L.L.Y.L.T.L.L.L.R.R.R.R.Y.Z.b.:.=.%.| | S S D D D D D D D D S C S #.;.n.G.R.R.R.Y.Y.L.Y.L.K.L.Y.T.L.T.K.T.T.L.j.0.E ",
"_.).^.W.Y.L.z.L.L.Y.K.L.Y.Y.Y.R.R.R.G.n.;.$.| D D D D D D D D D D D D A A C A #.;.n.G.Y.R.R.Y.Y.Y.L.Y.T.T.L.L.Y.L.T.T.T.L.j.0.E ",
"_.).^.W.Y.L.L.L.Y.Y.Y.Y.Y.Y.L.R.Y.J.V.>.%.D N N C D D D D D D D D D D D C C C #.=.n.G.R.R.Y.Y.L.L.T.Y.L.K.L.Y.L.L.T.T.T.L.j.0.E ",
"_.).^.W.Y.Y.z.L.L.Y.Y.Y.Y.L.H.G.Z.M.,.*.| C N N N S S S S S S F F H H F S C N #.=.n.G.Y.R.R.Y.Y.L.K.L.Y.L.Y.L.L.T.K.T.T.z.j.0.E ",
"_.).^.W.Y.L.L.L.Y.Y.Y.R.R.K.S.M.,.=.&.| D C N N N C C C C C C G H H H H G N N H *.n.G.Y.R.R.T.L.Y.L.Y.L.L.T.L.K.K.T.T.T.L.j.0.E ",
"_.).^.W.Y.L.L.L.Y.Y.Y.R.R.K.V.,.=.| S S C C C S C C C N C C C G F H H H G N C F *.n.G.Y.R.R.Y.Y.L.Y.L.T.Y.L.L.T.Y.T.T.K.L.j.0.E ",
"_.).Q.W.T.L.z.L.L.Y.Y.R.R.J.V.>.%.D S C S D | D | | D | D | | | D Z Z Z S S D #.;.N.G.R.R.R.Y.Y.L.Y.L.T.L.Y.T.L.L.T.T.T.z.j.0.E ",
"_.).^.W.K.L.L.L.T.L.Y.R.Y.L.V.,.=.$.$.$.$.%.%.&.%.%.%.&.&.&.} } M n b b M B $.=.<.V.G.Y.R.Y.Y.Y.Y.L.L.K.Y.L.K.L.L.T.T.T.L.j.0.E ",
"_.).^.W.Y.L.L.L.L.T.Y.R.R.L.S.M.1.-.-.-.:.>.>.<.>.<.>.1.1.1.:. .m c p c v / -.b.A.D.J.Y.R.Y.T.L.L.L.L.T.L.T.K.Y.Y.T.T.T.L.j.0.E ",
"_.).^.W.Y.L.L.L.Y.L.Y.Y.Y.Y.H.G.Z.V.V.V.V.V.V.V.V.V.V.C.P.P.B.+.Q r 8 e k ^ m.S.I.K.Y.Y.Y.Y.L.L.T.L.L.L.L.T.L.L.L.K.T.T.L.j.0.E ",
"_.).^.W.T.L.L.L.L.T.L.Y.L.L.Y.L.L.J.K.J.L.L.K.L.L.L.Y.E.!.E.l.O.l 7 = 4 g ` d.R.!.E.T.L.Y.L.T.T.K.L.T.L.Y.L.Y.L.T.K.T.T.L.j.0.E ",
"_.).^.W.Y.L.L.L.L.L.K.L.L.T.Y.Y.R.R.R.R.R.R.R.R.R.R.R.E.E.E.Y.2.x 4 * < d ` l.!.E.E.T.Y.Y.Y.L.L.Y.L.T.L.L.Y.L.K.L.T.T.T.L.j.0.E ",
"_.(.^.W.Y.L.L.L.L.L.T.K.K.Y.Y.R.Y.R.R.R.R.R.R.R.R.R.R.E.E.E.c.2.z 2 % > d ` k.E.!.E.R.L.L.L.L.T.L.Y.L.Y.L.T.L.T.K.T.T.T.L.j.0.E ",
"_.).^.W.Y.L.L.L.T.L.L.L.L.L.Y.Y.Y.R.R.Y.Y.R.Y.Y.Y.R.R.E.!.E.Y.2.z 9 * 1 d ` f.E.E.E.T.L.K.T.L.L.T.L.Y.L.L.L.Y.L.Y.T.T.T.z.j.0.E ",
"_.(.^.W.Y.L.z.K.L.L.Y.L.L.T.Y.K.T.L.K.L.Y.L.L.T.Y.Y.K.R.E.E.J.O.z 7 - 1 g ` d.R.!.E.T.L.Y.L.L.L.L.L.L.L.Y.K.L.Y.Y.Y.T.T.L.j.0.E ",
"_.).^.W.Y.L.L.L.T.T.L.Y.Y.Y.L.L.L.L.T.L.Y.K.L.L.Y.Y.T.T.!.E.L.O.x 9 - 3 g ` f.E.!.E.Y.T.L.Y.T.L.L.T.T.K.L.T.Y.L.K.T.T.K.L.j.0.E ",
"_.).^.W.L.L.L.L.Y.L.T.K.Y.L.T.L.L.T.Y.L.Y.T.L.L.L.K.T.E.~.!.R.4.J 9 - 1 g ..J.!.~.E.R.L.T.J.L.L.Y.Y.K.L.T.L.L.L.L.T.T.T.L.j.0.E ",
"_.).^.W.T.L.L.L.Y.L.L.L.Y.Y.L.Y.L.L.K.L.Y.L.K.L.L.L.Y.E.~.~.E.5.K 9 - 4 j X.Y.~.~.E.R.K.L.L.L.T.L.L.Y.L.K.L.T.T.L.Y.T.T.L.j.0.E ",
"_.).Q.W.Y.L.L.L.K.Y.L.Y.L.L.K.Y.K.Y.Y.L.L.T.Y.L.L.L.L.E.~.~.E.4.J 9 - 4 g ..L.~.~.!.T.L.L.L.T.L.T.L.L.T.L.L.L.L.K.K.T.T.L.j.0.E ",
"_.).^.W.Y.L.L.L.L.L.T.L.T.L.Y.L.Y.L.L.T.L.L.L.T.T.L.T.R.Y.U.d...l 7 - 1 d _ e.U.T.T.L.T.T.L.L.K.K.L.Y.Y.L.Y.L.T.Y.T.T.T.L.j.0.E ",
"_.).^.W.Y.L.L.L.L.T.L.L.L.Y.L.T.L.Y.K.L.L.L.T.R.E.E.Y.J.8.5...I a 4 - , t K ] 3.8.f.Y.E.E.R.T.L.L.T.L.L.K.Y.Y.L.Y.T.T.K.L.j.0.E ",
"_.).^.W.T.L.L.L.Y.L.L.T.Y.K.L.L.T.Y.L.L.T.L.T.!.!.!.R.r.o.U x i 7 > - : 5 t h P [ 8.Y.!.~.!.R.L.L.L.L.T.L.L.L.Y.K.T.T.T.z.j.0.E ",
"_.).^.W.Y.L.z.L.K.Y.L.L.L.T.T.L.L.L.T.L.L.L.L.!.~.~.R.5.U a 9 < ; - - - ; , 5 u L O.J.!.~.E.R.T.L.L.L.T.L.T.Y.K.Y.Y.T.T.L.j.0.E ",
"_.).^.W.Y.L.L.L.L.L.T.T.L.L.L.L.L.T.L.Y.Y.Y.T.T.E.E.d.[ l 9 & # # & - = $ @ $ 3 f ( 8.Y.E.E.T.L.Y.K.L.L.Y.L.Y.L.L.T.T.T.L.j.0.E ",
"_.).^.W.Y.L.L.L.Y.L.L.L.Y.L.T.L.Y.L.T.T.T.L.J.l.r.7.o.I u < @ + @ & - * # + @ - w K [ 7.e.f.L.Y.T.T.Y.Y.L.T.L.Y.L.T.T.T.J.j.0.E ",
"_.).Q.W.T.L.L.L.L.Y.K.T.L.Y.Y.L.L.L.Y.R.T.T.l.7.{ Q J a 9 - # @ $ & - = $ @ @ * 4 u l U [ 5.d.Y.R.T.T.Y.Y.Y.L.K.L.T.T.T.L.j.0.E ",
"_.).^.W.Y.L.L.L.Y.L.L.L.Y.L.L.T.L.T.T.T.E.Y.r.X.P a 0 4 , - & & & * - = * $ & = : 1 9 u J ` q.Y.E.E.R.K.Y.L.T.L.T.T.T.T.L.j.0.E ",
"_.).^.W.Y.L.L.L.L.T.T.L.L.Y.L.K.K.L.R.E.!.E.e._ g 5 - % $ = - = = - - - - = - = & & & 1 i U 6.Y.E.!.T.L.K.L.L.Y.L.T.T.T.z.j.0.E ",
"_.).^.W.Y.L.L.L.K.L.L.Y.Y.L.L.T.T.L.T.E.!.R.w.! i ; + o + & * = = = = = = * - * @ o o & w I 5.Y.!.E.R.T.L.K.L.Y.Y.K.T.T.L.j.0.E ",
"_.).^.W.Y.L.L.L.Y.L.T.Y.L.T.L.K.L.Y.R.!.!.E.q.! y * X   X # $ & $ $ $ $ $ $ $ # o . . # 0 L 4.Y.!.E.T.K.L.Y.Y.K.L.T.T.T.L.j.0.E ",
"_.).Q.W.T.L.L.L.L.Y.Y.L.T.L.L.Y.Y.L.T.E.!.E.q.! u = X   X + # # # # # # # # # @ o . . $ 0 P 5.Y.!.!.E.L.Y.L.L.L.T.K.T.T.z.j.0.E ",
"_.).^.W.L.L.L.L.L.Y.L.L.K.Y.Y.L.Y.Y.Y.E.!.R.q.~ a , @ o + $ & % & $ $ $ $ $ & # @ O + - t I 5.Y.E.E.R.L.L.T.T.L.L.T.T.T.L.j.0.E ",
"_.).^.W.T.L.L.L.T.L.K.L.K.L.Y.L.Y.Y.Y.E.!.R.e.] h q : ; : < 3 < 1 3 3 3 3 3 3 1 , ; : 6 s ~ 6.T.E.!.T.L.L.L.L.U.L.T.T.T.Y.j.u.E ",
"_.).^.W.T.T.L.L.K.T.T.T.T.K.T.T.T.T.T.!.!.T.r.@.Q l i i i s s g s s s s s s s s i i i h P { e.T.!.!.T.T.T.K.T.T.T.T.W.T.Y.k.u.E ",
"_.)./.Q.T.T.T.T.T.T.T.T.T.T.T.T.T.W.T.T.W.T.K.8.@.' ) ~ ~ ) ) ) ) ) ) ) ) ) ) ) ~ ~ ~ ' +.6.F.T.T.!.W.T.T.T.T.T.W.W.W.W.Y.k.u.E ",
"_._./.Q.T.K.L.T.T.T.T.T.T.T.T.T.T.T.T.T.T.T.T.J.s.Z.w.w.w.e.e.e.e.e.r.w.e.e.e.8.w.w.w.r.s.F.K.T.T.T.T.T.T.T.T.T.T.W.W.W.T.k.i.E ",
"_.(.Q.T.L.L.z.z.z.L.L.L.L.L.L.L.L.L.z.L.z.L.z.c.Y.Y.R.Y.R.R.Y.Y.R.Y.Y.Y.T.Y.R.T.R.R.R.Y.Y.Y.L.z.L.L.L.L.L.z.L.L.L.Y.T.Y.z.h.0.R ",
"/.^.K.l.j.h.h.h.j.j.j.j.j.j.j.j.j.j.j.j.j.h.j.x.v.v.v.v.v.v.v.v.c.v.v.v.c.c.v.v.v.v.c.v.x.x.j.j.j.j.j.j.j.j.j.j.j.k.k.k.h.y.9.R ",
"Q.K.l.g.u.0.9.0.0.0.0.0.0.0.0.0.0.0.0.0.0.0.u.i.p.a.h.a.h.a.a.a.a.a.a.a.a.a.a.a.a.a.a.p.p.i.u.0.0.0.0.0.0.0.0.0.0.u.i.u.9.9.E T ",
"J.l.0.9.E R R R E E E E E E E E E E E E E E R W W W W W W W W W W W W W W W W W W W W W W W E E E E E E E E E E E E E E E R T Y "
};
