/* XPM */
static char *result[] = {
/* columns rows colors chars-per-pixel */
"64 64 74 1 ",
"  c #6D2F7E",
". c #6E317F",
"X c #6E3180",
"o c #703582",
"O c #733B85",
"+ c #753F88",
"@ c #76428A",
"# c #78478D",
"$ c #79498E",
"% c #7B4E91",
"& c #7E5395",
"* c #7F5798",
"= c #7F5998",
"- c #815C9A",
"; c #84619E",
": c #8666A1",
"> c #8768A2",
", c #896DA5",
"< c #8B70A7",
"1 c #8C73A9",
"2 c #8F7AAD",
"3 c #907CAF",
"4 c #917EB0",
"5 c #5FCDE4",
"6 c #66CFE5",
"7 c #6DD2E7",
"8 c #73D4E8",
"9 c #79D6E9",
"0 c #9484B4",
"q c #9689B7",
"w c #978CB9",
"e c #988EBA",
"r c #9A93BE",
"t c #9C97C0",
"y c #9E9BC3",
"u c #A09FC5",
"i c #A1A1C6",
"p c #A2A5C9",
"a c #A6ACCD",
"s c #A7B0CF",
"d c #A7AFD0",
"f c #A7B0D1",
"g c #A9B3D2",
"h c #ACBAD6",
"j c #AEBED9",
"k c #AFC1DA",
"l c #B1C5DE",
"z c #B2C8DF",
"x c #88DBED",
"c c #94DFEF",
"v c #B4CCE2",
"b c #B6D2E5",
"n c #B8D5E7",
"m c #B9D6E9",
"M c #BBDBEC",
"N c #96E0EF",
"B c #97E0F0",
"V c #99E1F0",
"C c #BDE1EF",
"Z c #AAE7F4",
"A c #ADE8F4",
"S c #BEE4F1",
"D c #B2EAF5",
"F c #BDEEF7",
"G c #C0E6F2",
"H c #C2EBF6",
"J c #C1EFF8",
"K c #C4F0F7",
"L c #C4F0F9",
"P c #CAF2FA",
"I c #C7F8FD",
"U c #CAFCFF",
"Y c #D1F5FC",
"T c #D2FFFF",
/* pixels */
"5555555655655655555555555555555655555555555655655655555555555555",
"5678999998988998999999999999998998999999999898988998999999999999",
"679xcBVNBBccccBcccBBccccccccBccBBBcBcBcccccBBBcBccBccccBcccccccc",
"58xVZDDDAAAAAAAAAAAAAAAAAAAAAAZAAAZAZAAZAAADAAZAAAAAAAAAAAAAAAAA",
"58cZFLPLJFLLFLFLJJJJFJJJFJJJJJJJJJJJJJFJJJJJJJJJFJJFJJJJJJJLFJJF",
"69VDLYYYPPPPPPPPPPPPPPPPPPPPPPPPPPPPPPPPPPPPPPPPPPPPPPPPPPPPPPPP",
"59VDPYYYPPPPPPPPPPPPPPPPPPPPPPPPPPPPPPPPPPPPPPPPPPPPPPPPPPPPPPPP",
"59NAJPYPPPLPPPLPJPPPPPPPPPPJPPPPPPPJPPPPJPPPPPPPPPPPPLPPPPLPPPPP",
"69cAJPPPLLJPJJPJPJPPJPJPJPPJPJLLJPJJPJPPJJPJJPJJPJJPPJJPLLPJPPJP",
"59cAJPPPLLPJJPPJJJJJJJPJPJJJJPJLLLJPJJJJPJJPPJJPJPJJJJPJJLLLJJJJ",
"58cAJPPPPPJJJPJJJPJPPPJJJJJPJPLJJJJPJPLLJJJPPJJJJPJPJPPJLLLLJJJP",
"59cAHPPPJJJPJJJPJPJJJJJPJPJPJJLLPPJJJPJLPPJJJJPPJJJPJJJJLJLJPPJJ",
"59cAJPPPJJJPPPJJJPJJJPPJJJPJLJLJJJLLJLLJJJLLLLJJPPJJJJPPPJJJJJJP",
"59cAJPPPPPJJJJJPJPJPJJJJPJPJLLLLJPLLLLJJJPLLLLPJJJPJPJJJJJPPJPJJ",
"59cAJPPPJPPJJJJPJJPJPJJPLJJPILILPIILILILLLLLJPJJJPJJPJJJJPJJPJPJ",
"59cAJPPPJJJJPPJJPJJJPJJPJJLLIPUUUUIUUUUUPILLJJJPJJJPJJPPJJPJJJPJ",
"59cAJPPPJPJJJPJJPJJPJJJPJJPPUUUUUUUUUUIUIILJLLLLPPJJJPJJJPJJPPJJ",
"59cAFPPPPJJPJJPJPJJPJPJJJJJLJJPJLLLLLLPJJLLLLLLLJJJPJPJPJJPJJJJP",
"59cAJPPPPJJJPPJJJJJJPJPJIIJFMnvvvbbvvvvnMGLIILLLJJJPJJPJPPJJLJJP",
"59cAJPPPJJPPJJJPJPPJJJIPUUPClattrtytrrtihmLUUILLPPJJPJJJJJJPJPJJ",
"59cAFPPPPJJJPJJJLLLLJJPUTUPnp3;--->;---1yvHUUULLHJLLLLJPJJJPLPJJ",
"59cAJPPPJPPJJJPPLJLLPJLUUUHkr-@oO+#@Oo+-0gSUUUILJPLLLLJPPPJJLJJP",
"59cAJPPPJJJJJPJJJLLLLLJJHGbdq;$@@#%#@@#-3avSKLLLPLLLLJLJJJPJJJJP",
"59BAFPPPPJPPJJPJLLLLIPHMvhauq41<11111,12qtpgzmSLLLLLLLLLJPJJPPJJ",
"59cAFPPPLLLLJPJJJJPPIISliq30eiadddddssaptq30rjMLIILLJPPJJPPJJJPJ",
"59cALPPPLLLJJPJPPJIUUIMd4--,ulCGGCMCGGCbp2-*1pnLIUILJJJJJJJJPJPJ",
"59cAFPPPJLLLJJPJLLLIUIMp,@O:unUTUUPUUTUGf1#O;rvLUUILPJJPPJPPJPJJ",
"59cALPPPPLLJPJJJLJIIUPmu;oo-uGUTTTUUTTTHf,O.&evLUUPJPJJPJLJJJJJP",
"59cAFPPPJPJPJJJPJLIIUImu;o.-iGTTTTTUTTTJg,O &evLUUILPJJJJJJPPPJJ",
"59cAJPPLJJJPJPJJLLLIUIMu:OO;umUTTUUUUTTHf1@o=rvLUIILJJPJPPJJJJJP",
"59cAJPPPPJJJJJPPJJPUUIma1%$>ubJIILHLPULMa1&#>ybLUULLJPJPJJPJJJJP",
"59cAJPPPJPPJPJJJLLLUUIShr1,4tgvzvzlzvzzji0,1qfmLIILLJPJJJPJJPPJJ",
"59cAJPPPPJJJJJJPLJLIPLGmkaitrreweereeqerrryahvSLIILLJPJJJPJJPPJJ",
"59cAJPPJJJPPPPJJLLJLILJHGCvse,-&&----%-:0avMGFHLLLLLJPJPJJPJJJJP",
"59BAJPPPPJJJJJPJLJLLLLLUUUGjq-OOoO@OOoO&4fMIUULLLLLLJJPJPPJJJJJP",
"68BAJPPPPJPJJPJJLLLLLLLLKGMge>%#$%&%$#%-0abSHLLLLLLLPJJJJJJPPPJJ",
"59BAJPPPJJPJJJPPJJPLLLHMvhairq3334403330eyahlMSLLILLLLJPJJLLJJJP",
"58BAJPPPPJPJPJJJPJLUULSlu020rdhhjhgghhhsyq24thMLIILJLLJPPPJLJPJJ",
"69cZFPPPJPJJPJJJLJLUUIMa2&&,yvHHHHSFHKHna2&&,ibLUUIJLJLJJJJJPJPJ",
"58BAHPPPPJJPJJPPLLLUUUmp>@O;uMUTTUUUTTUGa1@O-rvLUIIJLLLLJPPJJJPJ",
"58cAFPPPPJJJJPJJJLLIUImi;o.-iCUTTUUTTTTKg,O.&evLUUILJJJPJPJJPPJJ",
"69cAJPPPJPJPJJPJLLIUUImu;O.;uCTTTTUTTTTHg,O.*evJUUILPPJJJJPJJJJP",
"59BAJPPPJJJJPPJJJLLIUIMp>OO;uMUTUUUUTTUGs<@O=tbLUUPLJJPJPPJJJJJP",
"58cAFPPPPJPPJJJPLLPUUIMa1&&,uzGLPHGHLLKma1&%,ybLUIPJJPJJJJJPPPJJ",
"59cAJPPPPJJJJPPJLJLUUISjr213rpjkkjhhjkjgy011rgmLIILLJJPPPJJJJJJP",
"59cAJPPLJPPJJJJLLLLPLLGnlaireq0400003000qryahbSLIILLPJJJJJPPJPJJ",
"59cAJPPPJJPJPJLLLJLLLPJHSMvaq:&%$&*&$$&;3ikmCFHLLLLLPJJJJPJJPJPJ",
"59BAJPPPPJJJPJJLLLJPJJJUUUSje-+XoO@OOoO&0fCPUULLLLLLJJPPJJPJJJPJ",
"59cAJPPPLLJPJJJPJJPPJJLUUTLvy1-%%&-*&%*>rlHUUULPLJLLJPJJJPJJPLLL",
"59cAJPPPJLJPJPJJPJJJJPLUUUUMhyq00qqq04qrfnLUUUPJLJLLJPJPJJPJJJPJ",
"59cAJPPLLJLJPJPJPJPJJJPLIPLGmvkjjjkkjjkvnSLPULPJLLJLJJPJPPJJJPJJ",
"59cALPPPLLLLJJPJJJJJPJJPLLLJJHHHHHHHHHHHHHLLLLJPLJLLPJJJJJJPJJJP",
"59cAFPPPJPPJJJPJJJPPPJJJLJLIIIUUUUIUUUIIIIJJJJJJJPJJPJJPJJJPPPJJ",
"59cAJPPPPJJJPJPJPJJJJJPPLJLPIUUUUUUUUUUUULPLPJPJJJPJPJJPPPJJJJJP",
"59cAJPPPJJJPJPJJPJJJJPJJJJPPLIIPIPIIIIIPIPLJPJJJPPJJJJJJJJPJJJJP",
"59cAFPPPJPJPJJJPJJPPJJPJLLJJLLJLLLJJLLLLJJLLJJPPJJJPJPPJJPJJPPJJ",
"59BAJPPJPJJPJJJPJPJJLJPJJJJPJPPJLLLLLLJLJPJJJPJJJPPJPJJLJPJJPPJJ",
"59cAJPPPPJJPJPJJJPJPJPJJPPJJJJJJLLJLJLLLJPJPJJPJJJJJJJPJJJPJJJJP",
"59BAJPPPJJJJPJPJJJPJJJPPJJPJPJJPLLLLJPJLJJPJPPJJPJJPJPJPPPJJJJJP",
"59BAJPPPPJPJJJPJPJJJPJJJLLJJPJJPLLLLJJLLPJJJJJJPPJJPJJJPJJJPPPJJ",
"59cZJPPPJPPJJJPJJJPPPJJJLJJPPJJJJJJPPPJJJJPPPJJJJJJPLLJJJJJPJJJP",
"59BAJPPPPJJJPJPJPJJJJJPPJPJJJJPJPPJJJJJPPJJJJJPPJPJJJJPJPPJJJPJJ",
"59cZJPPPJJJPJPJJPJJJJPJJPJPJJPJPJJPJJJJPPJJJJPJJPJPJJPJPJJPJJLPJ",
"59BAJPPPJPJPJJJPJJPPJJPJJJPJJPJJJPJJPPJJJJPPJJPJJJPJJPJJJPJJPJPJ"
};
