/* XPM */
static char *result[] = {
/* columns rows colors chars-per-pixel */
"64 64 74 1 ",
"  c #A91D1D",
". c #AA2525",
"X c #AB2827",
"o c #AB2B2B",
"O c #AC3232",
"+ c #AD3B3C",
"@ c #AE3F40",
"# c #AE4344",
"$ c #AE4748",
"% c #AF4B4C",
"& c #B04C4E",
"* c #AF4E50",
"= c #B04E50",
"- c #B05254",
"; c #B15759",
": c #B15A5C",
"> c #B15E60",
", c #B26466",
"< c #B36669",
"1 c #B3696B",
"2 c #B47476",
"3 c #B47578",
"4 c #B57A7C",
"5 c #B67E82",
"6 c #5FCDE4",
"7 c #66CFE5",
"8 c #6DD2E7",
"9 c #73D4E8",
"0 c #79D6E9",
"q c #B68185",
"w c #B78589",
"e c #B7898D",
"r c #B88A8E",
"t c #B78C90",
"y c #B88E92",
"u c #B89296",
"i c #B89498",
"p c #B9999E",
"a c #B99DA2",
"s c #BAA1A6",
"d c #BAA5AA",
"f c #BCABAD",
"g c #BBACB2",
"h c #BCB1B7",
"j c #BCB3B9",
"k c #BDBABE",
"l c #BDBCC2",
"z c #BEC0C7",
"x c #BEC2CA",
"c c #BFC8CF",
"v c #BFCBD2",
"b c #88DBED",
"n c #94DFEF",
"m c #96E0EF",
"M c #97E0F0",
"N c #99E1F0",
"B c #AAE7F4",
"V c #ADE8F4",
"C c #B2EAF5",
"Z c #BDEEF7",
"A c #C0CED5",
"S c #C0D0D7",
"D c #C1D5DD",
"F c #C1DCE4",
"G c #C2E4EC",
"H c #C3E7F0",
"J c #C3EBF4",
"K c #C1EFF8",
"L c #C5F2F5",
"P c #C4F0F9",
"I c #CAF2FA",
"U c #C6FCFF",
"Y c #C8FFFF",
"T c #D1F5FC",
/* pixels */
"6666766666666666666666666666666666666666766666766666766666666666",
"6789900000000000000000000000000000000000000000000000000000000009",
"780bmMNmMnnnnnnnnnnnnnnnnnnnnnnnnnnnnnnnnnnnnnnMnnnnnnnnnnnnnnnn",
"69bNBCCCVVVVVVVVVVVVVVVVVVVVVVVVVVVVVVVVVVBBBBBVVBBBVVVVVVVVVVVV",
"69nBZPIPKPZPZPZKKKZKKKKKKZKKZKKKKKKKZKKZKKKKKKKKKKKKKKKKKKKKKKKK",
"70NCPTTTIIIIIIIIIIIIIIIIIIIIIIIIIIIIIIIIIIIIIIIIIIIIIIIIIIIIIIII",
"60NCITTTIIIIIIIIIIIIIIIIIIIIIIIIIIIIIIIIITIIIITIIIIIIIIIIIIIIIII",
"60mVKITIIIIIIPIIIIIIIIIIIIIIIIIIIIPIIIIIPIIIPIPIIIIIIIIKIIIIIKII",
"70nVKIIIPPIKIIKIKIKKIKIKKIKIKIIIPPKIKIKIKKIKKPPPPKKIIKKIKIKIKKIK",
"60nVKIIIPPKIKKKKIKKIKIKKKKIKKKKKPPKKKIIKKIIKIKPPPIKKKKIKKKIKKIIK",
"69nVKIIIPKKKIKIKIKKKKKIIIKIKIKIKIKIKKKIKKIKKKIKIPPKIKIIKIIKKKIKK",
"60nVKIIIKIIKKKIKKKIIIKKKIKKKIKKKKKIKIKKKKKKIKIKKPPKIKKKKKKKIKKKI",
"60nVKIIIKIIKKKIKIKKKPPPPKKKIKKIIKIIKKIKIIKKIKKIKPPPPKKIIKKKIIIKK",
"60nVKIIIIKKKIKIKKKIKPPPPKIKKKKKKKKKKKKKIIKKIKIKKPPPPIKKKIIKKKKKI",
"60nVKIIIKKKIKIKKKIKIPPPPPPIUUUPUIUPUIPKKKKKKKKIIPPPKIKKKKKIKKKKI",
"60nVKIIIKIKIKKKIKIKKKPPPUUUUUUUUYUUUUKIKKIIKIKKKPPPPKKIIKIKKIIKK",
"60nVKIIIKKIIKKIKKIKKIIKIUUUUUUUUUYYUIPKKIKKKKIIKPJPPPPPPPPPPPPPP",
"60nVZIIIIKKKKIKKKKPPKKPPUUPPPPPPPPKKPKIIKKIIKKKKPPPPPPKPJPPPPJPP",
"60nVKIIIKIIKKKIIIIKPPPKGvvvcvvvvAAADGHKKPPPKIKKIPPPPPPPPPPPPPPPP",
"60nVKIIIIKKKIKKKKKKIUPHAjayryuiiuiaglFJKPUPKIKKIPPPPPPPJPPPPPPPP",
"60nVZIIIKKIIKIIKPPPUUPFlr<-%=;;;;:,5avHUUUKKIKKKPPPPPJPPPPPPPPPP",
"60nVKIIIIKKKKKKKPPPUUUFg4$oXoOOOooO;wlHUUUKIKKIKPJPPPPPPPPPPJPPP",
"60nVKIIIIKIKIKKIPPPUUUFg4&OoO++O. .$5jGUYUKIKIKPPPPPPPPPPPPPPPPP",
"60nVKIIIIKKKIKKIPKKUUPGlp41,111;+..@2hGUYUPKPPPPPPPPPPPPJPPJPPPP",
"60nVKIIIPKPPIKKKPIPUUKHFlgddffdw:O.@3jGUUUPPPPKPPPPPPPPPPPPPPPPP",
"60nVKIIIIKIKKKIKPKKKPPKHGFFFGGDj5&O#3jGIUUPPPPPPPPPPPPPPPPPPPJPP",
"60nVKIIKKIKKKIKIKKKIKIPPPUUYYUPcw=O#2jGUUUPPPPPPPPJPPPPJPPPPPPPP",
"60nVKIIIIKKIKIKKIIKKPPPPUUYYYYUcy=O#2jGUUUPPPPPPPPPPPPPPPPKPPPPP",
"60nVZIIIKKKIKKIKKKKKPPPIUUUUUUUAy*O@2jGUUUPPPPPPPPPPPPPPPPPPPPPP",
"60nVKIIIKIKIKIKKKIIKPPPPKKPUUUPxw*O#2jGUUUPPPPPPJPPPPPKPPPPPJPPP",
"60nVKIIIIKKKKKIIIIKKPPKPKKIUYUJxw=O#3jGUUUPPPPPPPPPPPPPPPPPPPPPP",
"60nVZIIIKIIKIKKKKKKIPPPPIKKIUUPxw=O#3jFUUPIPJPPJPPPPPPPPJPPJPPPP",
"60nVKIIIKIIKIKKKIKKKKIPPKKKUUUPzw=O#3jGUUUKIKKKKIIKKKKIKKIKKIIKK",
"60nVKIIIIKKKKKIIKKIIKKPKIIKUUUJzw=O#3jFUUUKKKIIKKKKIIKKIKKIKKKKI",
"60nVZIIIKIKIKIKKKIIKIKPPKKPUYUKzw=O#3jHUYUPKKKIIKKKIIKKKIIKKKKKI",
"60nVKIIIKKKIKKIKKKKKIKPKKIPIUUJlw=O#3jFUYUPIIKKKIIKKKKIIKKKIIIKK",
"60nBKIIIIKKIKIKKIIKKPPPPKKIPYUJlw=O#3jGUUUKKKIIKKKIKKIKKIKKKKKKI",
"60nVKIIIKIKKKIKIKKKIPPPPIKKUUUJAw=O#3jFUUUPKKKKKKIKKKKIKKKIIKIKK",
"70nVKIIIIKIKKKIKKKKIPPPPPPKIUUKxw=O#2hHUUUPPIKKIKKIIIIKKKIKKIKIK",
"60nVKIIIKKIKIKKKIIKKPPPPPPPUYYKlw=O#3gZUYUUPPPKIIKKKKKKIIKIKKKIK",
"60nVKIIIIKKKIKKIKKKIKKKIPUUUUUPAe=O#3kJUUUUUUKKKPKKKKKKIKKIKKKIK",
"60nVKIIIKIKIIKKIKIKIKIPPUUUUYYUvt=O#4lPUYUUUUPPPPKIIIIKKKIKKIKIK",
"60nBKIIIKKKKKKKKKKIKKKPUUUYYYYUct=O#4kPUYUUUUUPPPPKKKKIKKKIIKIKK",
"60nBZIIIIKIIKIIKIKKPIIKKHGGLPLGk5=O#2fFJLPHHHJKPPPIKKIKKIKKKKKKI",
"70nVKIIIIKKKIKKPPPPPPPJFAkjjkzji1@oO>tglkkjkcDGPIPPKKKIIKKKIIIKK",
"60nVKIIIKIIKKKIPPPPUUPFAsw42444,&O.O#>25422qpkGPPUPIIKKKIIKKKKKI",
"60nVKIIIKKKKKIKPPPPUUUFjq;+++##+Oo..O+##@++&4fSPUUUKIKKKKKIKKKKI",
"60nVKIIKIKIIKKPPPKPUUPFg2#o.XOOOOOOOOOOOX.X+,pSPUUIKKKIIKIKKIIKK",
"60nVKIIIKPKKIIKKKKIUUPFjw:#@#$&--;;;;-%%@@@;5dFPUUPPIKKPPKPPPPPP",
"60nVKIIIIKIKKKKIIKPUUPGAft534qqqetytewq5535walFPIUPPKKIKKIPPPPPP",
"60nVKIIIKIKKKKKIIKKKPPJFAzlllllxxxxxxllllllzAFJKKUPPKIKIPPPPJPPP",
"60nVKIIKIKKIIIKKKKIIPPKKJJJJHJJJJHJJJJKHJHJHJJKPKPPPKIKKKPPPPPPP",
"60nVKIIIIKKKKKKIIKKKKIKPUUUUUUUUUUUUUUUUUUUUUPPPIKKIKKIKPKPPPPPP",
"60nVKIIIKKIIKIKKKKIKKKPUUUUUUUUUUUUUUUUUUYUUUIPPIKKIKIKKPPPPPPPP",
"60nVZIIIIKKKIKIKKIKIIKKIPUUIUUUIUUUPUUUIPUUUIKPPKKKKKKIIPPPPPJPP",
"60nBKIIIIKIKKKIKKIKKKIKIKIKKPPKKPPPPPPPPKIKKPPPPKIIKIKKKPPPPPPPP",
"70nVKIIPKIKIKKIKKIKKKIKKIKKKKKKIPPPPKKIKPPPPPPPPPPPPPPPPJPPJPPPP",
"60nVKIIIIKKIKIIKKIKIKKIKKKIIIIKKKPPKIKIKPPJPPPPJPPPPPPPPPPPPPPPP",
"60nVKIIIKKKKKIKKKKIKIIKKKIKKKKIKPKPPKIKKPPPPPPPPPJPPPPPPPPPPJPPP",
"60nVKIIIIKIKKKKIIKKKKKKIKKIKKIKKPPPPKKKIPPPPPPPPPPPPPJPPPPPPPPPP",
"60nBKIIIIKKIIIKKKKIIKKKIIIKKIKKIKKKIIIKKPPPPPKPPPPPPPPPJPPPPPPPP",
"60nBKIIIKIKKKKKIIKKKIIKKKKKIKKIKIIKKKKKIPPPJPPPPPPPPPPPPPPPPPPPP",
"60nVKIIIKIIKKKKIIKKKKKIKKKKIKIKIKKIKKKKIPPPPPPPPPPPPPPPPJPPPPJPP",
"60nVKIIIPKKKIIKKKKIIKIKKIIKKKIKKKIKKIIKKPPPPJPPPPJPPKPPPPPPPPPPP"
};
