/* XPM */
static char *result[] = {
/* columns rows colors chars-per-pixel */
"64 64 71 1 ",
"  c #288A5F",
". c #2C8D64",
"X c #308F67",
"o c #308F68",
"O c #34926B",
"+ c #38946F",
"@ c #3A9671",
"# c #3E9975",
"$ c #409A77",
"% c #449C7B",
"& c #489F7F",
"* c #4CA283",
"= c #50A587",
"- c #53A68A",
"; c #56A98D",
": c #59AA8F",
"> c #5CAC93",
", c #60AF97",
"< c #64B19A",
"1 c #69B49F",
"2 c #6BB6A2",
"3 c #6EB8A5",
"4 c #70B9A7",
"5 c #74BCAA",
"6 c #79BFAF",
"7 c #7AC0AE",
"8 c #7DC2B3",
"9 c #5FCDE4",
"0 c #66CFE5",
"q c #6DD2E7",
"w c #73D4E8",
"e c #79D6E9",
"r c #80C3B6",
"t c #83C5B9",
"y c #87C8BD",
"u c #8CCBC2",
"i c #91CEC6",
"p c #92CFC8",
"a c #94D1C7",
"s c #95D1CB",
"d c #99D4CE",
"f c #9DD6D2",
"g c #9FD8D4",
"h c #A1D9D6",
"j c #A5DCDB",
"k c #A9DFDE",
"l c #88DBED",
"z c #94DFEF",
"x c #ABDFE0",
"c c #96E0EF",
"v c #97E0F0",
"b c #99E1F0",
"n c #ADE1E2",
"m c #B1E3E6",
"M c #B4E6E9",
"N c #B7E8ED",
"B c #B9E9EE",
"V c #AAE7F4",
"C c #ADE8F4",
"Z c #B2EAF5",
"A c #BDECF2",
"S c #C1EEF6",
"D c #C0EFF8",
"F c #C5F1F7",
"G c #C4F0F9",
"H c #CAF3FC",
"J c #CFF8FF",
"K c #D1F5FD",
"L c #D3FAFF",
"P c #DBFEFF",
"I c #E1FFFF",
/* pixels */
"9999999099999999099099999999099099099099099099099999999999009009",
"90qweeeeeweeeeeeeeweeweeeeeeeeweeweeweeweeweeweeweeewleeeeewwwww",
"0qelzvbbvvzzzzzzzzzzzzzzzzzzzzzzzzzzzzzzzzzzzzzzzzzzzzzzzzzzzzzz",
"9wlbVZZZCCCCCCCCCCCCCCCCCCCCCCCCCCCCCCCCCCCCCCCCCCCCVVVVVVVNCCCC",
"9wzVAGFSSSSSADDDSSSSDDADSASSSSSSSSSSDADDSSSSSSSSSSSSSSSSSSSSSSSS",
"0ebZGKKKHHHHHHHHHHHHHHHHHGFHHHKFHHHHHHHHHHGHHHHGHGHHHHKGHHHHHHGH",
"9ebZHKKKHHHHHHHHHHHHHHJHHKHHHHHKHHKHHKHHHKFKHHHHHHFHHHHKHHHHHHHH",
"9ecCGHKHHFHHGGHGHFHHGGGHHGFHGHFFGGFGHFGGGHHGHGHHGHHHGHSHHSHGHHGH",
"0ezNSGKGFFGGGGGGGGGGGGGGGGGGGGGGGGGGDHSSHHDHDHSSGGGGGGGGSGGHSSGG",
"9ezVSGKHGFGGGGGGGGGGGGGGGGGGGGGGGGGGHDDHSDDSHDDHGGGGGSGGHSGGSHGG",
"9wzVSKHFGGGGGGGGGGGAGGGGGGGGGGGGGGGGHSDHSHHSHSSHGGGGGGGGSSGGGGGG",
"0wzVSHHHGFGGGGGGGGGGGGGGGGGGGGGGGGGGDSHDDDHDSHDDGGGGGGGGSHGGGGGG",
"0wzCSGHGGGGGGGGGGGGGGGGGSGGGGGGGGGDHDHHSHSSDHSHDGSGGGGGGGGGGGSGG",
"9wzCSHHHGGSGGGGGGGGGGGGGGGGGGGGGGGDDDSDDHDHDHDDDGGGGGGGGGGGGSHGG",
"0ezCSKKFGGGGGGGGGGGGGGGGGHHHGHHGHHHHHHHHHHHHHDDHGGGGGGGGGSGGGGGG",
"0ezCSFHHGGGGGGGGGGGGGGGHHHHJJHJJKHHKKHHHHHHHHHHDGGGGGGGGGGGGGGGG",
"9wzCSHHGGGGGGGGGGGGGGGHGJJJKJJHJJJJHJJHJJJJJJHHGGGGGHSDDHSDHSDHS",
"0wzCSHHHGGSGGGGGSGGGGGGGGGSGGGGGGGGGGGGAGGGAGAGGGGGGSSHSHDSSHSHD",
"9ezCSHHGGGGGGGGGGGGGHGSAMnkkxxxxxknknkxxkjnnmAAAHGGGDHSHSSHHSHSD",
"9wzCSHHHGGGGGGGGGGHGHGAngutr8888888888887788pgAGHHGGSHDDDHSSDSSH",
"9wzCSHHSGGGGGGGGDHDHHHNhr1:-------------=**:4pmGHHDDHDHSSHDSHHSD",
"9lzCSHHHGGGGGGGGDDHKKGMp2*+OO+++@@@+@@@+O.O#>ynGKKHHSHDSSSHHSDSH",
"9ezVSHHHGGGGGGGGHSDHKHMu,$. X+$$########@O+%<unGHHHDSSHHDHGSDSDH",
"9ezVSGKGGGGGGSGGHDHHKHMu>+.X%;,<<<,><><>>:><8dMGHHHDDHSDHSGSHHDS",
"9ezVSHHSGHSSGGGGDSHHJHMu>@o$>8uaauuuuiuuuuuufnAGHHHSDSHDSSHSDSHS",
"9ezVSGHHGSSHGGGGDHHHJGMu>@@=6gNAAAMMMMMMMMMMAAAGDDSHHHSSHDDSHSHD",
"9wzVSHKHHGGGGGGGHDHHJHMu>#@;tmJLLJHHHHJHHHHHGGGGHSSDSSHSSDHHSHSD",
"9lzCSHHSSGGGGGSGSDHHJGmy>@@>uBLIPPLLLLLLLJLKHHHGDDHDSHSHHSSDDDSH",
"9ezMSHHHGGGGGGGGDHHHHHMu>@@>uALIPPLLLLLLKKKHHHHSHHSDSGSDHSDSHSSD",
"9ezVSHHHGGGGGGGGDDHHJHnu>#@;yMLPPLKKLLLLHHHDDDSHSDSHHDHSSSHHSHSH",
"9ezVSHHGGSHGGGGGHHHHJHMu>#@-8xDHHGDSSAAGSSDDHSSDHSDHHSDSDHSDHSHS",
"9ezVSGHHGGSGGGGGSDDKHHMu>#O*2ujkkjgjgggkmNHHHHHDSSHSDSHHDSHDSHDS",
"0ezCSHHSHGGGGGGGGGHJJHmu>+.@*25775554348anGJJJGGGGGGGGGAGGGGGGGG",
"9ezCSHHHGGAGGGGGGGGHJGMu>+..+%**=**&%%%>7gALLJHGGGGGGGGGGGGGGGGG",
"9wzCSHHHGGGGGGGGGGHHJGMi<%...O@+++OOo.O%1pMHJJGGGGGGGGGGGGGGGGGG",
"9ezCSHHGGGGGGGGGGGHHHHNd7>*%%%%#%%%%##$*2ugMBSGGGGGGGGGGGGGGGGGG",
"9ezCGHHHGGGGGGGGGGGHHHAns874222212111<1247yudnAGHHGGGGGGGGGGGGGG",
"9ezCAHHGGGGGGGGGGGGGGGAAnnjgfdssssssdddi82,,7amGHHHGGGGGGGGGGGGG",
"9ezCGHHHGGGGGGGGGGGGGGGGGDAAAABABABASFSnu<&#:tnGJHHAGGGGGGGGGGGG",
"9ezCAHHGGGGGGGGGGGGGGGGAAAAGGHHJJJJLLLLAu>@o*7kGHJHGGGGGGGGGGGGA",
"9ezCSHHHGGGGGGGGGGGHGGAMjddjNHPPLLLPPIPSi:X %5kGJJHAGGGGGGGGGGGA",
"9ezCAHHSGGGGGGGAGGGHJGZg8228jALPPPLLPIPFa>O %5kGJJHHGGGGGGGGGGGG",
"9ezCSFHHGGGGGGGGGGGHJHMu,%$,uNJLLLKLLPLAi>OX*5kGJJHAGGGGGGGGGGGG",
"9ezCSHHHHGGGGGGGGGHHJHMu,##-8jAFFSAAFFFnu<%$>rnGJHHGGGGGGGGGGGGG",
"0ezCDHHFHGGGGGGGGGGHJGNd7:->7udffgddfffar2><5amGHHGAGGGGGGGGGGGG",
"9ezCDHHHGGGAGGGGGGGHHGAnst77322211221114468udkAGHHHHGGGGGGGGGGGG",
"9wzCSHHHGGGGGGGGGGGHGGAANmgy3;%$$%%%%#%=1thMBASGHHAHGGGAGGGGGGGG",
"0ezCSHHFGGGGGGGAGGGGGGHHJJAf7*O..O+OX.X%1iMHJJGGAAHAGGGGGGGGGGGG",
"9ezCSHHGGGGGGGGGHGGHAHHJJLHj8,*$#***%#%:7gAJJJJAHHAHHAHHAHAHAAHA",
"9wzCSFHHGGGGGGGGAGGAHAAJJJHMf83222442238anGJJJHHAAAHAHAHHAHAHHAH",
"0ezCSHFKGGGGGGGGGGGGAHHHHJGAMjgffgjggfgjnZGHHHJAHAHAHAHAAHAHHAHA",
"9ezCSHKFGGGGGGGGGHAGHAAHGAHAGAAZAAAAAAAAFFGGGGAHAHAHAHAHHAHAAHAH",
"9wzCSGHFGGGGGSGGGGGGGGGGAHHHHHJJJHJHJHJHHGGGHAHAHAAHAHHAHAAHHAHH",
"0ezCSHHFGGSGGGGGGGGGGGGGAHAJHJJJJJJJJJJHHHGGAHAHAHHAHAAHAHHAAHHA",
"9ezCSHHHGGGGGGGGGGGGGGGGHAHAAJJHHHHHJHHHHGGGHAHAHAHHAHAHHAAHAHAH",
"9wzCDHHFGGGGGGGGGGGGGGGGAHAHHAAHGGGGGGGGGGGGAHAHAHHAHAHAAHHAHAHA",
"9wzCSGKGGGGGGGSGGGGGGGGGGGGGGGGGGGGGGGGGAHAHAHHAHHAHAHHAHAAHAHAH",
"9lzCSGKGHGGGGGGGGGGGGGGGGGGGGGGGGGGGGGGGHAHAHAAHAAHAHAHHAHHAHAHA",
"9wzVSKHGGGGGGGGGGGGGGGAGGGGGGGGGGGGAGGGGAHHAAAHAHAAHAHHAHAHHHHAH",
"9ezVSHKGGGGGGGGGGGGGGGGGGGAGGGGGGGGGGGGGHAHHHHAHAHHAHAAHAHAHAAHA",
"9ezVSHHHGGGGGGGGGGGGGGGGGGGGGGGGGGAGGGGGHAHAAHAHHAHAHAHAAHAHHAHA",
"9ezMSHHGGGGGGGSGGGGGGGGGGGGGGGGGGGGGGGGGAHAHHAHAAHAHAHAHHAHAAHAH",
"0ezCSHHHGGGGGGGGGGGGAGGGGGGGGGGGGGGGGGGGHAHAAHAHAHHAHAAHAHAHHAHA",
"9ezCSFHHGGGGGGGGGGGGGGGGGGGGGGGGGGGGGGGGAHAHHAHAHHAHAHHAHAHHAHAH"
};
