/* XPM */
static char *result[] = {
/* columns rows colors chars-per-pixel */
"64 64 76 1 ",
"  c #2E2963",
". c #332F68",
"X c #36336B",
"o c #38366D",
"O c #3A396F",
"+ c #3D3C72",
"@ c #403F75",
"# c #3F4074",
"$ c #414176",
"% c #444579",
"& c #46497B",
"* c #494C7E",
"= c #4B4F80",
"- c #4E5383",
"; c #515786",
": c #515887",
"> c #545B89",
", c #59628E",
"< c #5C6691",
"1 c #5E6993",
"2 c #616C96",
"3 c #66729B",
"4 c #68769D",
"5 c #6E7DA3",
"6 c #7182A6",
"7 c #7486A9",
"8 c #7688AB",
"9 c #7A8DAF",
"0 c #7E93B3",
"q c #5FCDE4",
"w c #66CFE5",
"e c #6DD2E7",
"r c #73D4E8",
"t c #79D6E9",
"y c #8196B6",
"u c #8298B7",
"i c #859CBA",
"p c #89A1BD",
"a c #8CA6C1",
"s c #8FA9C4",
"d c #91ACC6",
"f c #93AFC8",
"g c #94B0C7",
"h c #96B2CA",
"j c #99B6CE",
"k c #9AB8CF",
"l c #9DBCD2",
"z c #A2C2D7",
"x c #A3C5D8",
"c c #A7C9DB",
"v c #A9CDDE",
"b c #88DBED",
"n c #94DFEF",
"m c #ABCEE0",
"M c #ADD2E2",
"N c #B1D6E6",
"B c #B3DAE7",
"V c #B5DCEA",
"C c #96E0EF",
"Z c #97E0F0",
"A c #99E1F0",
"S c #BAE2EE",
"D c #AAE7F4",
"F c #ADE8F4",
"G c #BCE5F1",
"H c #B2EAF5",
"J c #BFEAF4",
"K c #C1ECF6",
"L c #C1EFF8",
"P c #C4F0F7",
"I c #C4F0F9",
"U c #C9F3FB",
"Y c #CDFBFF",
"T c #D1F5FC",
"R c #D3FFFF",
"E c #DAFFFF",
/* pixels */
"qqqqqqqwqqqqqqqqqqqqqqqqqqqqwqqwqqqqqqqqwqqwqqwqqqqqqqqqqqqqqqqq",
"qwertttttrttttttttttttttttrtttrttrttttttrrrttrtrrttttttttttttttt",
"wetbnZAZZZnnnnnnnnnZnnnnnnZZnnnnnnnnnnnnZZZZZZZZZZZZnnnnnnnnnnnn",
"qrbADHHHFFFFFFFFFFFHFFFFFFFFFFFHFFFFFFFFFFDFFFDDFFFFFFFFFFFFFFFF",
"qrnDJIUKLLLLJIJJLLLKJJJJJLLLLLKKKKKKLKLLJJIJIJJJHIKLLJKLIKKKJIJJ",
"wtAHITTTUUUUUUUYUUUIYUYUUUTUUIUUUUUUIUUUUUUUUUYUUUUUUUUUUUUUUUUU",
"qtAHITTTUUUUUUUUUUUUUUYUUUUUUTUUUUUUUUUUUUUUUUUUUUUUUUUUUUUUUUYU",
"qtCFIYTUUUUUKUUUULUUUUIYUUIIUIIUIUUUUUIUUUUUUUUUUUUUUUUUUUUIUIUU",
"wtnFKUUUIIKIIIIUYJUJUJYJIIIIIIIIIIIUIIIIIIIIIIIIKUULLUULKUIIIUUL",
"qtnFKUUUIIUIIIIKJUJYJUJUIIIIIIIIIIIIIIIIIIIIIIIIULLUULKUUKIIIKUL",
"qrnFKUUUIIIIKUIIYJJUYYJJIIIIIIIIIIIIIIIIIIIIIIIILLLLLLLLLIIULILL",
"wtnHKUUUUKIIKIIIJJYJJJJYIIIIIIIIKIIPIIIIIIIIIIIILUULKUULIIIKUIUK",
"qtnFLUUIULLUKULLUJYYJYJUIIIIIIIIIIIIIIIIIIIIIIIILUKLLUKLLLKULLKU",
"qrnFLUUULKULUKLUJYJJJJUJIIIIIIIIIIIIIIIJIIIIIJIIULLUULLUULULLUUL",
"wtnFKUUUULULLKLUJJYJYJIUIUUUUIYUUUYUUUUYUUYIYIIILULUULLKLUULULLL",
"qtnFKUUUULLLUULLYJJUJUIIYYYYYYYYTYYYYYYYYYYYYIIILLLLLLUULLLLLLUL",
"qrnFKUUULLULLULUKLLULLUUYYYYYYYYYRYYYYYYYYYYYUIIUKLLIIIIIIIIJIII",
"qtnFJUUUULKULLULLULULULLIJIIIIIIIIIIIIUIIIIIIIIILULUIIIIIIIIIIII",
"qtnFKUUUULULUUKLLLULLUKGNMmmmMMMMmvmMmmmMMMMVSKILUULIIIIIIIIIIII",
"qtnFKUUUKULLLLLUULLUULKmjp00000iuuuuuyuuuuiajMHIUUULIIIIIIIIIIII",
"qtZDLUUUKLUULUULJUJYYUSl03>:>,<<,,,,,,,,,,<40jBIYUIIIIIIIIIIIIII",
"qtnFJUUUULLLLLKUUJUYTUVh6-OXO###$$$$$$$@+O+*4aMIYYYIIIJIIIIIIIII",
"qtnFKUUUUKULULLLJYIYYUVj7>#####=&&&&&&&%O..+<pMITRUIIIIIIIIJIIII",
"qtZFLUUUULLLULULUJIUYUSz0631243333344442-+XO<0mIYYUIIIIIIIIIIIII",
"qrZFLUUUIIIILULLJJYUYJHVxgaaasddsdsshhgp5-O#,0mIYYYIIIIIIIIIIIII",
"qtnFKIUUIIIIKULUYJUJYJIJGSSVVVVVVVVSGJSvp1##,iMIYYIIIIIIIIIIIIJI",
"qtnFLUUIIIIKULLLJJJYJUJJIYIYUYYUYYUYYEYSh4&#,0MIYYYJIJIIIIIIIIII",
"qtnFKUTUIIIILLUUYYJJUJYYYYYYYYYYYYYREEEPj4%O>0mIYYYIIIIIIIIIIIII",
"qtnFKUUIIILULLKLJUJUJJJYYYYYYYYYYYYYEEEIj3#o-0vIYYYIIIIIJIIIIIII",
"qtnFLUUUIILUKUULYJYJJYYJIJIIIIUUIIIYYEEJf3#o:0vIYYUIIIIIIIIIIIII",
"qtnFJUUUIKKLLULLJJUJYYJUIIIIIIIIIIIUYYIVs3*%<0MIYYUIIIIIIIIIIIII",
"qtnFLUUUUUUKULLUJYJYJJUJIIIIIIIIIIIJSBMli6117hNIYYIIIIIIIIIIIIII",
"qtnFLUUKYJJUJYJYYJJUJYYJJYJYJJJYYUIHvgi0990igcSIYYIIIIIIIKIIIIII",
"qtnFLUUUJJYJJJUJJJYJJJJUJJUJYYJJYYINg8225ikmBSJIIIIILIIIIIIIIIII",
"qtZDLUUUUJJYYJYJUJJYYJYJYJYJJUUYYYIMi<%&3aVIYYPIIIIIIIIIIIIIIIII",
"qtZFLUUUJYJYJUJJJYJYJUJJJUJJYJJUYYYMu>oO1sGYEYIIIIIIIIILIIIIIILI",
"qtnFJYUUUJYJJYJYJUJUJYJYYYJUYJUYYRYNu;.X,aGYEYYIIIIILIIIIIIIIKII",
"qtnFJUUUJUYJJYUJYJYJJYUJJJYJJJJYRERBi>.X,aVYRYIIIIIIIIIIIIIIIIII",
"qtnFJYYIYJJUUJYJJYJJUJJYYJJJJUIYYEYNi,+@1aBYYYYJIIIIIILIILIIIIII",
"qtnFJUUYJJYJJUJJYJJYJYJJJUJYUUJJPJSxi2-:5fVUYYIIIIIIIIIIIIIIIIII",
"qtnFLUUUYJUJJYJYJJJYJJUJIIIUUUIJNxjp0657izSUYYJIIIIIIIIIIIIIIIII",
"qtnFJUUUJUJYJJUJJYUJJYJYIIIIUYJMh0668usjcVJIIYIIIIIKLIIIIIIIIIII",
"qtnFKUUIYJJUYJYYUJYYUJJYIIIIYYJvu2*,6dMGPJIIIIIIIIIIIIIIIIIIIIII",
"qtnFLUUUJJYJJUJJJUJJJYJJIIIYYYJx8-O*5lJYRYUIIIIIIIIIIIIIKIIIKIII",
"qtnFLUUIJUJUJJUJJJUJYYJUIIIUYYJz6& $4kURRYUIJIIIIIIIIIIIILIIIIII",
"qtnFLUUUYJYJYYJUYYJYJJYJIIIYYYJl6% #4kJEEYUIIIIIIIIIIIIIIIIIIIII",
"qtnFKUTIJUYJJUYJJUJJYJJJIIIURYIz6&X%4hJYYYIIIIIILIIIIIIKIIIIIIII",
"qtnHKUUUYJJJYJJJYJYJJUJYIIUYYYJx9>#*6jSYYYIIIIIIIIIIIIIIIIIIIIII",
"qtnFLUUIIIIUKUKUYJJJYJJJYJYYYYJMi5,30zJUYULKLUULIIIILIIIIIIIIIII",
"qtnFLUUUIIIIKKUKJUYJJUYJJUJJIYJVlp0ijMJUUUUULLLKIIIKIIIIUKIIILII",
"qtnFLUUUIIIIKULUYJJUYYJUJJYJYIIHNmxmNGLUUIULULLUIIIIIIIIIIIIIIII",
"qtnFKUUIUPIIULLLJJYJJJUJYYJUIIIUKJJLJKLULLLKULULIIIIIIIIIIILIIUK",
"qtnFKUUUULLULLLLUJYYJUJJJUJJYJYJUYYYYUILLLLULULKIIIIKIIILIIIIIII",
"qtnFKUUUKULLLULUJYJJYJYYYJYJUJJYUYYYUUILLULLLULUIIIIIIIIIIIIILII",
"qtnFJUUIUKULULLUJJYJJJUJJJUJJUJJIUUYUULKULULLLULIIIIIIIIIIKUIIII",
"qtnFIUUUULLLLLUKYJJUJYJYJYJYYJYJIIIILLUULLULULKUIIIIIIIIIIIIIIIL",
"qtnFKUUULULULLULUJYYJUJJUJJYJUJJIIIIIIIJLLUKLUKLLLKUULLLIIIIIULL",
"qtnFKUUULLLUUKULJUJJYJYJJYJJYJYYIIIIIIIIULLULLULUULLKLUUILIUILII",
"qtnFKUUUUKLLKULLYJJUJJJUYJJUJJUJIIIIIIIIULLKUULLLUULLULLIIIKIIIK",
"qtnFKUUULUULLLLUJJYJJYYJYJYJJYJUIIIIIIIILLUULLLULKLLULULIIIIIIIU",
"qtnFKUUULUULULLUUJYYJUJJJYJJJYJJUJIIIIIILULLULLLUULLLLUKULULLIII",
"qtnFKUUUULLKLULLJYJJYJYYUJJYUJJYJIIIIIIILULUKLUULLLUULLULLLLIIII",
"qtnFKUUUKLLUULUKJJYJJJUJJYUJJYUJUJIIIIIIKLULLULLULLUULULLUKULUIL",
"qtnFKUUULUULLLULYJJUJYJYJJJYJYJYJUIIIIIIULLLULULKULLLLLLUKULLLLU"
};
