/* XPM */
static char *result[] = {
/* columns rows colors chars-per-pixel */
"64 64 74 1 ",
"  c #5FB715",
". c #5FB817",
"X c #61B91C",
"o c #65BB25",
"O c #67BD29",
"+ c #69BD2D",
"@ c #6BBF33",
"# c #6DC037",
"$ c #6EC039",
"% c #70C13D",
"& c #73C343",
"* c #76C54B",
"= c #7AC754",
"- c #7BC856",
"; c #7EC95C",
": c #7FCA60",
"> c #81CA5E",
", c #82CB65",
"< c #84CD6B",
"1 c #87CE71",
"2 c #89CF74",
"3 c #8AD079",
"4 c #5FCDE4",
"5 c #66CFE5",
"6 c #6DD2E7",
"7 c #73D4E8",
"8 c #79D6E9",
"9 c #8FD383",
"0 c #91D386",
"q c #93D58B",
"w c #96D793",
"e c #98D796",
"r c #98D897",
"t c #9AD99C",
"y c #A0DC9F",
"u c #9EDBA4",
"i c #9FDCA8",
"p c #A2DDA6",
"a c #A1DDAB",
"s c #A5DFB3",
"d c #A6E0AE",
"f c #A7E0B5",
"g c #A8E1B7",
"h c #A7E0B8",
"j c #A9E1BC",
"k c #ACE3C3",
"l c #AFE4CA",
"z c #B1E5CD",
"x c #B4E7D5",
"c c #B6E8D6",
"v c #B9EAD7",
"b c #B5E7D8",
"n c #B6E8D9",
"m c #B9EADE",
"M c #88DBED",
"N c #94DFEF",
"B c #96E0EF",
"V c #99E1F0",
"C c #BAEBE3",
"Z c #BEEDEC",
"A c #AAE7F4",
"S c #ADE8F4",
"D c #B2EAF5",
"F c #BDEEF7",
"G c #C1EEE5",
"H c #C1EFED",
"J c #C2EFF4",
"K c #C0EFF8",
"L c #C4F0F4",
"P c #CAF3F7",
"I c #C4F0F9",
"U c #CAF3FC",
"Y c #D1F6FE",
"T c #D1F8FF",
/* pixels */
"4444444544544544444444444444444444444444544444444444544444444444",
"45678888878878878888888888887M78887M7888888888888888888888888888",
"568MNVVVNNNNNNNNNNNNNNNNNNNNNNNNNNNNNNNNNNNNNNNNNNNNNNNNNNNNNNNN",
"47MVADDDSSSSSSSSSSSSSSSSSSSSSSSSASSSSSSASSSSSSSSSSSSSSSSSSSSSSSS",
"47NAFIPJKJKJKKKKJKKJKKKJKKJJKKJKJJJJJJKKJJIJIJJJJKJJJIJJIIJJJJKK",
"58VDIYYPUUUUUUUUPUUUPUPUUUUPUUUUUUUUUUUIUUIUUUUUUUUUUUUUIUUUUUUI",
"48VDPYYYUUUUUUPUUUUUUUUUUUUUUUUUUUUUUUUUUUUUUUUIUUUUUUUUUUUUUUUU",
"48BSKYYPUUUUPIIUIPUPIUPUUUIIUUIUIUULUIUUUIIUIUUUIUIIUIIUUIIUUJUU",
"47NSJPUPIIIIIILLIIIIIIIIJIIIIIIIIIIIIIIIIIIIIIIIIIIIIIIIIIIIIIII",
"4MNSIUUUIIIIIIIIIIIIIJIIIIIIIIJIIIIIIIIIIIIIIIIIIIIIIIIJIIIIIIII",
"47NAJUUUIIIIIIIIIIIIIIIIIIIIIIIIIIIIIIIIIIIIIIIIIIIIIIIIIIIIIIII",
"48NAKUUJIIIIIIIIIIIJIIIIIIIIIIIIIIIIIIIIIIIIIIIIIIIIIIIIIIIIIIII",
"48NAIUUUIIIIIIIIIIIIIIIIIIIIIIIIIIIIIIIIIIIIIIIJJIIIIIIIJIIIIIII",
"48NSJUUUJIIIIIIIIIIIIIIIIIIIIIIIIIIIIIIIIIIIIIIIIIIIIIIIIIIIIIII",
"47NSJUUUIIIIIIIIIIIIIIIIIIIIIIIIIIIIIIUIIIIIIIIIIIIIIJIIIIIIIIJI",
"4MNSJUULIIIIIIIIIIIIIJIIIJIIIIIIIIIIUUUUUIIIIIIIIIIIIIIIIIIIIIII",
"47NSIUUUIIIIIIIIIIIIIIIIIIIIKIIIIIIIIUUUUUIIIIIIIIIIIIIIIIIIIIJI",
"48NSJPUIIIIIIIIIIIIIIIIIIIIIIIIIIIIIIIIIIIIIIIIIIJIIJIIIIIIIIIII",
"48NSJUUPIIIIIIIIIJIIIIIJIIIIIIIIIUIIJmbbCZJIIIIIIIIIIIIIIIJIIIII",
"48NAKPUUIIJIJIIIIIIIIIIIIIIIIIIIUUUJbsuusxJIIUIIIIIIIIIIIIIIIIII",
"47NSKUUIIIIIIIIIIIIIIIIIIIIIIIIUUYUJsq1<wsZIUUIIIIIIIIIIIJIIIIII",
"4MNSKUUUIIIIIIIIIIIIIIIIIIIIIIIIUUUmu,%&<aCIUUIIIIIIIIIIIIIIJIII",
"47NSJUUIIIIJIIIIIIIIIIIIIIIIIIIIJHCj0*o+:uCIUUUIJIIIIIIIIIIIIJII",
"48NSJUPUIIIIIIIIIJIIIIJIIIIUUUIJmjaq:@X@,uCUUUIIIIIIIJIIIIIIIIII",
"48NSJUUIIIIIIIIJIIIIIIIJIIIUUYUZsw<=@oo@<aCIUUIIIIIIIIIIIIIIIIII",
"48NSJUUUIIIIIIIIIIIIIIIIIIIIYYUbp,@OXXO&2aCIUUIIIIIIJIIIIIIIIJII",
"48NSJUUIIIIIIIIIIIIIIIIIIIIILJZkq>@oXXO&2sCUUUUIIJIIIIIIIIIIIIII",
"48NSJUUUIIIIIIIIIIIIIIIUUUIJbksuq1>*@OO&2aCIUUUIIIIIIIIIIJIIJIII",
"48NSJUUUIIIIIIIIJIIIIIIUUUUbs022qttq,&+@2aCUUUIIIIIIIIIIIIIIIIII",
"48NSKUUUIIIIIIJIIIIIIIUUYYIl0-&;qsbjw-@&<uCIUUIIIIIIJIIIIJIIIIII",
"48NSKUUIIIIIIIIIIIIIIIIUUUZs3&@-ebKZa<@@,uCUUUIIIIIIIIIIIIIIIIII",
"48NSKUUIIIIIIIIIIIIIIIJZmbju3;=2sJUJs1@@<aCUYUIJIIIIIIIIIIIIIIJI",
"58NSKUUUIIIIIIIIIIUUUIZzgtwqqqrfvUYLs,##<aZUTUUIIIIIIIIIIIIIIFII",
"48NSKUUULIIIIIIFIIFUUIZhq:;1wjcCPYUZi:@$<aFUTTIIIIIIIIIIIIIIILII",
"48NSKPUUIIIIIILIIIIUUICu<$#;txUYYYUmt;@$<iCIUUIIIIIIIIIIIIIIIIII",
"48NSKPUKIIIIIIIIIIIIYUCt-#o*9kCCGmnsq-@#;wkmGLIIIIIIIIIIIIIIIIII",
"48NAKPUPIIIIIIIIIIUUYICu-o #;qidpytq,*@@*,qufxZIUIIIIIIFIIIIIIII",
"48NSKUUUIIIIIIIIIIUUUUCu:# .#=:<,;;=&@@@#$*,qfCIUUUIIIIIIIFIIIII",
"48NSFPUPIIIIIIILFUFUUUCi1$X.o###@@@@@@++ooO$<unIUUUIIIIIIIIIIIII",
"48NSIUUIILIIIIIIUFUUUUCh9-$####$#%##@@+@Oo#&<unIUUUFIIIIIIIIIILI",
"48NSKUUUIIIIIIIIFUIUUUZzu91,,,:<,,<>*$@@#&-1wgCIUUIILIIIIIIIIIII",
"48NSKUUUIIIIIIIIIFIUUFZClhaiiiuiaapw1*@@*1wsknZIIIIIIIIIIIIIIIIL",
"48NSKUPIIIIIIIILIIIIIIFFZZCCCCCZCZCkq-@#:wlCZLIIIIIIIIIILIIIIIII",
"48NSKPPULIIIIIIIIIIIIIIIIIIIUIIUTUUmt-##<iZUYUUFIIFIIIIIIIIIIIIF",
"58NSKUPIIIIIIFIIIIIIIIUIIUYYUUUUTTUCu-+#<iFUTUUIIIIIIIIIIIIIIIII",
"48NSKUUUIIIIIIIIIIIIIIIIUUIUUUUUUTUCr=O+:iZUTYUIIIIIILIIIIIIIIII",
"48NSJUUUIIIIIIIIIIIIIIIIUIUIUUUUUTUnw=o+:uCUUUUIIIIIIIIIIIIIIIII",
"48NSJUUIIIIIIIIIIIIIIIIIIIFIIIIIUUInt;##<iCIUUUIIIIIIIIIIFIILIII",
"48NAKIUUIIIIIIIJIIIIIIIIIIIIIIIUUUIms3;:9sZIUUIIIIIIIIIIIIIIIIII",
"48NAJUUUIIIIIIIIIIJIIIIJIIIIIIIIUUICkiwraxZIUUIIIIIIIIIIIKKIIIII",
"58NSIUUUIIIIIIIIIIIIIIIIIIIIKIIIIIIFCxllnCLIIIIIIIIIIIIIIIILIIII",
"48NSJPUIIIIIIIIIIIIKIIIIIIKIIIIIIIIILFLLKKIIIIIIIIIILIIIIIIIIIIK",
"48NSKUUPIIIIIIIIIIIIIIIIIIIIIIIIIIIIUIUUUUIIJIIIIIIIIIIIIIIIIIII",
"48NSJUUUIIIIJIIIIIIIIKIIIIIIIIIIIIIIIUUUUIIIIIIIIIILIFIIIIIIIIIK",
"48NAKUUUIIIIJIIIIIIIIIIIIIJIIJIIIIIIIUIUUIIIIIIIIIIIIIIIIIIJIIII",
"48NAKUUIIIIIIIIIKLIIIIIIIIIIIIIIIIIIIIIIIKIIIIIIIIIIIIIIIIIIIIII",
"48NSJPUPIIIJIIIIIIIIKIIIIIIIIIIIIIIIIIIIIIIIIIIIIIIIIIIJLKKIIIII",
"48NSKUUIIIIIIIIIIIIIIIIIIIIIIILIIIIIIIIIIIIKIIIIIIIJIIIIIIIIIIII",
"48NSKUUPIIIIIIIIIIIIIIIKIIIIIIIIIIIIIIFIIIIIIIIIIIIIIIIIIIIIIIII",
"48NSJUUPIIIIJIIIIIKILIIIIIIIFIIIIIIIIIIIIIIIIIIJIIIIIIIIIIIIIIIJ",
"48NSIUUUIIIIIIIILIIIIIIILIIIIIIIIIIIIIIIIIIIIIIIIKIIIIIIIKIIIIII",
"48NSJUUIIIIIIIIIIIIIIIIIIIIIIIIIIIIIIIIIIIIJIIIIIIIIIIIIIIIIIIII",
"48NSJUUUIJIIJIIIIIIIIIFIIIIIIIIIFIIIIIIIIIIIIIIIIIIIJIIIIIIIIIII",
"48NSJUUULIIIIIIIIIIIIILIIIIILIIIIIIIILIIIIIIJIIJIIIIIIIIIIIIIIIJ"
};
