/* XPM */
static char *result[] = {
/* columns rows colors chars-per-pixel */
"64 64 98 2 ",
"   c #000000",
".  c #0C0505",
"X  c #0C0C0C",
"o  c #100607",
"O  c #110708",
"+  c #15090A",
"@  c #1C0B0D",
"#  c #141414",
"$  c #1C1C1C",
"%  c #200D0F",
"&  c #250F11",
"*  c #261012",
"=  c #2D1215",
"-  c #311417",
";  c #351518",
":  c #39171A",
">  c #3E191C",
",  c gray14",
"<  c #2E2E2E",
"1  c #353535",
"2  c gray23",
"3  c #421B1E",
"4  c #461C20",
"5  c #491D22",
"6  c #4F2025",
"7  c #532126",
"8  c #5C252A",
"9  c #62272C",
"0  c #64282E",
"q  c #6B2B31",
"w  c #732E34",
"e  c #773036",
"r  c gray25",
"t  c #494949",
"y  c gray33",
"u  c #5D5D5D",
"i  c #646464",
"p  c #6B6B6B",
"a  c #747474",
"s  c #7E7E7E",
"d  c #85363D",
"f  c #89373F",
"g  c #AC3232",
"h  c #B23739",
"j  c #B73B3F",
"k  c #B83C3F",
"l  c #8E3941",
"z  c #933B43",
"x  c #9B3E47",
"c  c #9D3F48",
"v  c #B73B40",
"b  c #BA3D40",
"n  c #9F4049",
"m  c #A4424B",
"M  c #AC444F",
"N  c #BF4246",
"B  c #AD4650",
"V  c #B14751",
"C  c #B54953",
"Z  c #BB4B55",
"A  c #C4464C",
"S  c #C8474E",
"D  c #CA484F",
"F  c #C74950",
"G  c #CE4B53",
"H  c #C44F5A",
"J  c #CF4F58",
"K  c #D04B52",
"L  c #D04F58",
"P  c #C5505B",
"I  c #CB525D",
"U  c #D1535E",
"Y  c #DC545E",
"T  c #D65661",
"R  c #D95763",
"E  c #DC5965",
"W  c #DF5B69",
"Q  c #E15A67",
"!  c #E45C69",
"~  c #EA5E6B",
"^  c #ED606D",
"/  c #F2616E",
"(  c #F56371",
")  c #FB6472",
"_  c #818181",
"`  c gray55",
"'  c #949494",
"]  c gray65",
"[  c #AEAEAE",
"{  c #B4B4B4",
"}  c #BBBBBB",
"|  c #C6C6C6",
" . c gray81",
".. c #D4D4D4",
"X. c gray87",
"o. c #E5E5E5",
"O. c #F4F4F4",
"+. c #FEFEFE",
/* pixels */
"g g g g g g g g g g g g g g g g g g g g g g g g g g g g g g g g g g g g g g g g g g g g g g g g g g g g g g g g g g g g g g g g ",
"g g h j j j j j j j j j j j j j k k k j j j j j j j k k k k b b b k j j j j j j v v v v v v j j j j j j j j j j j j j j j j j j ",
"g h b N A A A F A A A A A A A A A A A A A A A A A A A S S K G G K S A S A A A A A A A A A A A A A A A A F A A S A A A A A S A A ",
"g j N F G U U I J J J J J J J J I G I I G U G J G L L U Y Y E T Y L L G G L I G J J J J J J J J J J J J G I G I J J J J G J J J ",
"g j A G U E R R T T R Y R Y U R T T T T T T R T T T R T E E W E R T R T T T T R T T T T T R T T T T T T T T T R T T T T R T T R ",
"g j A L E Q W W E E E W W W W W E E E E E E E W Q Q E T I H Z H I E E W Q W E E E W W E E E E E E E W E W W E E W R W E E E E E ",
"g v S U E W W W E E W Q W ^ ^ E W E E E E E E ! ~ ^ W I B z l n C U ! ^ ^ ^ ~ ~ ! W W E E E E E W Q ~ ~ ~ ! W W R W R W E W E W ",
"g j S I R W W W E E W W ^ ^ ^ W W E R R R E E ~ ( ^ W C d 7 6 8 l P ~ ( ( ^ ^ ~ ! W E E R T R E W Q ~ ~ ~ Q W E R R W R R W R R ",
"g j A J T E W E R E W W Q ! Q Q E R R R R R E ~ ^ ^ R n 8 & + - q B W ^ / ~ Q ! Q E R T R R R R R E Q Q Q E E R R R R R R E R R ",
"g j A J R E W E R T R I I P I U T R R E E R R E E T Z d 3 .   + 7 n P E T T H U U T T E R E E R T T T H I I T T R R R R R R R R ",
"g j A J T E W W E T Z m z z n V U Q ~ ~ ~ ! E U Z m f 9 =     . : q l n m c x c V H E ! ~ ~ ~ Q I C c l z m H T E W E R R R R R ",
"g j A J R E ! Q W I m e 7 3 0 z H ~ ( ) ) ~ R C z q 7 : +       % 3 7 9 8 8 7 0 l V R ^ ( ) / ~ H z 0 5 7 e m I W Q E E R R R R ",
"g j A I T E ^ ^ Q I z 7 % + ; e Z Q ) ) ) ~ U c 0 - @ + .       . + % & % % % - 9 c U ^ ) ) ) Q Z w ; + & 7 z I Q ~ ! E R R R R ",
"g j A J R Q ! ^ ! I f 5 O   % 9 c T Q ^ ~ R Z d 4 o                           o 4 l Z R ~ / Q R c 0 &   o 5 l H Q ~ ! E R R R R ",
"g j A J T E ! ~ Q I n 9 ; % ; 8 d m Z Z Z B z 9 =                               = 9 z B Z Z C c d 8 ; & ; 9 x J Q ! Q E R R R R ",
"g j A J T W Q ! E U C z w 9 8 9 9 q w e w q 8 > @                               + > 8 q w e w q 0 9 8 9 w z C U E ! E E R R R R ",
"g j A J U E W W E T I H C c l 0 3 = - ; - - * @ .                               . @ = - - ; - = 3 0 d m C H U T R E R R R R R R ",
"g j A J R E W R R R Q ~ Q T c q -                                                               = q m U Q ~ Q R R R R R R R R R ",
"g j A J R E E R R R ~ ( ) Q C q &                                                               & q V Q ) ( ~ E R R T R R R R R ",
"g j A J R E E R R E ~ ) ) ^ Z q *                                                               & q Z / ) ) ~ E R R R R R R R R ",
"g j A L R E W E R E ~ ) ) ~ C q =                                                               = w Z ~ ) ( ~ E R R R R R R R R ",
"g j A J U E E E R R Q ~ ~ E B q =                                                               = q M R ^ ~ Q E R R R R R R R R ",
"g j A J T E E E R R R R T Z z 8 *             X # $ $ $ $ $ $ # X .                             & 8 z Z U R R R E R R R R R R R ",
"g k A I T E W W E T P V c d q 3 @           X , 2 y u u u u u t < #                             @ 3 q d c Z I E ~ Q Q E R R R R ",
"g j A J T W W W W U B l 0 5 : & o           # 2 p ' ] ] ] ] ] s y ,                             . & : 5 0 z Z E ^ ^ ! Q R R R R ",
"g j A J T W ^ ^ W I n 0 - + o .             $ y ' ..o.o.o.o.o.} a 1 .                             . . @ - q m R ^ ^ ~ Q R R T R ",
"g j A J T W ^ ^ ^ I n 6 +                   $ i [ O.+.+.+.+.+. ._ 2                                     + 5 f Z R Q R R R R R R ",
"g j A J T W ! ( ^ I l 6 o                   $ p } +.+.+.+.+.+.X.' 2 .                                     - 8 f c Z H U R Q E R ",
"g j A J Y W ^ ( ^ T n 7 O                   , i } +.+.+.+.+.+.o.' r .                                     + - 5 8 d c H Q ! Q R ",
"g j A J R W ^ ( ^ T n 8 @                   $ i } O.+.+.+.+.+...` r                                       . . o & 8 z H E ! ! Q ",
"g j A L Y W ^ ^ E P z 7 @                   $ u ] o.O.+.+.O.O.| s 1 .                                           o 4 d Z Q ~ ! Q ",
"g j F L T T I Z V x w > @                   # t _ { | | | | | ] i <                                       . + % = 9 z F Q ! Q Q ",
"g k D Y W I C l q 8 3 & .                   X 1 y a _ _ _ _ s i 2 $                                     . & 3 8 q f B I R Q Q E ",
"g k G Y W Z n 8 ; @ + .                     . # , 1 1 1 1 1 1 < $ X                                     @ 3 w z V H J Y R E E R ",
"g b G Y R Z l 6 +                                 X . . .   .                                           @ 7 z P E ~ Q E R R R R ",
"g b G R E P l 8 * o . .                                                                                 @ 8 c R ^ ( ~ E R R R R ",
"g b K Y E I B d 8 4 - +                                                                                 + 7 n T / ( ~ E R R T R ",
"g b S U R T P C m d 9 -                                                                                 o 7 z I ~ ^ ~ Q R R R R ",
"g j S L R E Q ! R Z f 5 +                                                                               + 7 z I Q ~ Q E R R R R ",
"g k A G T W ^ / ~ T m q - + o .                                                                   . o + - 0 n I ! ~ Q E R R R R ",
"g j A J U Q ^ ^ ^ Q Z l 0 5 : & o                                                               X & : 5 9 l V U Q ! Q R R R R R ",
"g j A J R W Q ^ Q Q U Z c d q 3 @                                                               @ > q l c C H U R E Q R R R R R ",
"g j A J R E W W E R R R U Z z 8 =                                                               & 8 z Z U R R R R E R R R R R R ",
"g j A J T E E E R E Q ~ ~ E M q =                                                               = q v R ~ ~ ! R R R R R R R R R ",
"g j A J R E E R R E ~ ) ) ~ Z w =                                                               = w C ~ ) ) ~ Q R R R R R R R R ",
"g j A J T E W R T E ~ ) ) ^ C q =                                                               & q C ^ ) ) ~ R R R R R R R R R ",
"g j A I T T W T R E ~ / ) ! V q &                                                               & q C ! ( ( ~ R T R R R R R R R ",
"g j A I T E W E R R Q ~ ! U m q =                                                             . = q m U ! ! Q R R R R R R R R R ",
"g j A J T E W E R T I P C m d 0 3 = = - - = & @ .                               . @ & - - - - - 4 0 l c C H I R E E R R R R R R ",
"g j A J R E W ^ W I V z e 0 8 8 0 q w e e q 8 > @                               @ > 8 w e e w q 0 8 8 9 w z C U W W Q R R R R R ",
"g j A J T E Q W Q I n 0 ; * ; 8 f m V F Z B z 9 -                               = 9 z c Z Z C c l 8 ; & ; 0 x U W ! Q E R R R R ",
"g j A J T E ^ ^ Q I l 4 +   % 0 m U ! ^ ~ E Z d 4 o                           O 4 l F R ~ ~ ! U c 9 &   + 5 l P Q ~ ! E R R R R ",
"g j A J Y E ^ ^ Q I z 7 @ + - w C ! ( ) ) ~ U n 0 - @ % % % % + .       . O @ - 9 c U ~ ) ) ) ! C w ; O % 7 z P ! ! ! R R R R R ",
"g j A J R W W ^ Q I m e 7 5 0 z H ~ ( ) ) ^ T V f 0 8 8 8 8 7 3 &       + ; 7 q l Z E ~ ) ) ( ! P z 0 5 7 e m I Q ! Q E R R R E ",
"g j A J T E W W E T Z M z l c C I Q ~ ~ ~ Q R P V c x c m m z q ; .     & 9 l c Z U E ! ~ ~ ~ Q U C x l z m Z T R Q E R R R R R ",
"g j A J R E E E R T U I I I I U R R E E E E R T I I I I R T H z 7 +   . > l H R E E R E R R R R R U I P P U R R R R R R R R R R ",
"g j A J T E W E R R E Q Q Q Q Q R R R R R R E E Q ! ! ~ / / Q B q - o * 8 n T ^ ^ ~ R R R R R R R Q ! ! Q Q Q R R R R R R R R R ",
"g j A J T W T E R R Q Q ~ ~ Q Q E R R Y T R R E ! ! ~ / / / ! H l 9 5 7 d V E / ^ ! E R U R R R Y Q ! ! ! ! Q R R R R R R R R R ",
"g j A I T W W R R R E Q Q ! ! Q E R R R R R R E Q Q ! ! ^ ~ Q I V z d l m P E ~ ~ Q E R R R R R Q Q Q ! ! Q Q R R R R R R R R R ",
"g j N I T E E E R R R E E E E R R R R R R R R R E Y E E E E R T I H Z H I U R E E R R R R R R R R R Q R R R R R R R R R R R R R ",
"g j A J T E E E R R R R R R R R R R R R R R R R R R R R R R R R E E Q Q E E R R R R R R R R R R R R R R R R R R R R R R R R R R ",
"g j A J R E E E R R R R R R R R R R R R R R R R R R R R R R R E Q ! ~ ! ! E R R R R R R R R R R R R R R R R R R R R R R R R R R ",
"g j A J T E E E R R R R R R R R R R R R R R R R R R R R R R Y E Q Q ! ! Q E R R R R R R R R R R R R R R R R R R R R R R R R R R ",
"g k A J T E E E R R R R R R R R R R R R R R R R R R R R R R R E Y Q Q E E R R R R R R R R R R R R R R R R R R R R R R R R R R R "
};
