/* XPM */
static char *result[] = {
/* columns rows colors chars-per-pixel */
"64 64 236 2 ",
"   c #53C8E1",
".  c #53C9E2",
"X  c #55C9E1",
"o  c #54CAE2",
"O  c #56CAE2",
"+  c #57CAE2",
"@  c #57CAE3",
"#  c #58CAE2",
"$  c #59CAE2",
"%  c #58CBE2",
"&  c #58CBE3",
"*  c #59CBE3",
"=  c #5ACBE3",
"-  c #5BCCE3",
";  c #5CCCE3",
":  c #5DCCE3",
">  c #5BCBE4",
",  c #5CCCE4",
"<  c #5DCCE4",
"1  c #5ECCE4",
"2  c #5ECDE4",
"3  c #5FCDE4",
"4  c #60CDE4",
"5  c #61CDE5",
"6  c #61CEE4",
"7  c #62CEE4",
"8  c #63CEE4",
"9  c #65CEE5",
"0  c #64CFE5",
"q  c #65CFE5",
"w  c #66CFE6",
"e  c #6AD1E5",
"r  c #68D0E6",
"t  c #6AD0E6",
"y  c #6BD1E6",
"u  c #6BD1E7",
"i  c #6CD1E7",
"p  c #6DD1E7",
"a  c #6CD2E7",
"s  c #6DD2E7",
"d  c #6ED2E7",
"f  c #6FD2E7",
"g  c #73D4E7",
"h  c #74D4E7",
"j  c #73D3E8",
"k  c #77D4E9",
"l  c #76D5E9",
"z  c #79D6E9",
"x  c #7BD6E9",
"c  c #7CD6E9",
"v  c #7CD7E9",
"b  c #80D8EB",
"n  c #80D9EB",
"m  c #82D9EB",
"M  c #83D9EB",
"N  c #85D9EB",
"B  c #85DAEB",
"V  c #87DAEB",
"C  c #85DAEC",
"Z  c #86DAEC",
"A  c #87DAEC",
"S  c #87DBEC",
"D  c #89DAEB",
"F  c #89DBEB",
"G  c #88DBEC",
"H  c #89DBED",
"J  c #8BDBEC",
"K  c #88DCED",
"L  c #8BDCEC",
"P  c #8DDCEC",
"I  c #8CDCED",
"U  c #8DDCED",
"Y  c #8DDDED",
"T  c #8EDCED",
"R  c #9BE1EF",
"E  c #9CE0EF",
"W  c #9DE1EF",
"Q  c #9FE1EF",
"!  c #9DE3F1",
"~  c #9EE2F0",
"^  c #9EE3F1",
"/  c #9EE3F2",
"(  c #9EE4F1",
")  c #9FE4F1",
"_  c #9FE4F2",
"`  c #A0E2F0",
"'  c #A0E4F2",
"]  c #A2E5F2",
"[  c #A3E5F2",
"{  c #A4E5F2",
"}  c #A6E6F3",
"|  c #A9E6F3",
" . c #A8E7F3",
".. c #A9E7F3",
"X. c #B1E7F2",
"o. c #B1E7F3",
"O. c #B2E7F2",
"+. c #B2E7F3",
"@. c #B2E8F3",
"#. c #B3E8F3",
"$. c #B4E8F3",
"%. c #B4E9F4",
"&. c #B4EAF5",
"*. c #B7ECF6",
"=. c #B7ECF7",
"-. c #B9EBF5",
";. c #B8ECF7",
":. c #B9ECF7",
">. c #BBEDF7",
",. c #BCEDF7",
"<. c #BDEDF7",
"1. c #BBEEF9",
"2. c #BCEEF9",
"3. c #BDEEF9",
"4. c #BFEFF8",
"5. c #BEEEF9",
"6. c #BFEFF9",
"7. c #C5EDF6",
"8. c #C6EDF6",
"9. c #C5EEF6",
"0. c #C6EEF6",
"q. c #C7EEF6",
"w. c #CAEFF6",
"e. c #CAEFF7",
"r. c #C0EEF8",
"t. c #C1EEF8",
"y. c #C0EFF8",
"u. c #C1EFF8",
"i. c #C0EFF9",
"p. c #C1EFF9",
"a. c #C3EFF8",
"s. c #C2EFF9",
"d. c #C1F0F9",
"f. c #C2F0F9",
"g. c #C3F0F9",
"h. c #C4F0F9",
"j. c #C5F0F9",
"k. c #C6F0F9",
"l. c #C5F0FA",
"z. c #C4F1FA",
"x. c #C5F1FA",
"c. c #C6F0FA",
"v. c #C7F0FA",
"b. c #C6F1FA",
"n. c #C7F1FA",
"m. c #C7F2FA",
"M. c #C7F2FB",
"N. c #C8F1FA",
"B. c #C9F1FA",
"V. c #CAF1FA",
"C. c #C8F2FA",
"Z. c #C9F2FA",
"A. c #C9F3FA",
"S. c #C8F2FB",
"D. c #C9F2FB",
"F. c #CAF2FA",
"G. c #CBF3FA",
"H. c #CAF3FB",
"J. c #CBF3FB",
"K. c #CCF0F8",
"L. c #CDF1F8",
"P. c #CFF2F9",
"I. c #CDF3FA",
"U. c #CDF2FB",
"Y. c #CDF3FB",
"T. c #CEF2FA",
"R. c #CEF3FA",
"E. c #CEF3FB",
"W. c #CDF4FB",
"Q. c #CEF4FB",
"!. c #CFF4FB",
"~. c #D0F2F9",
"^. c #D5F2F8",
"/. c #D6F3F9",
"(. c #D4F4FB",
"). c #D5F4FB",
"_. c #D5F5FB",
"`. c #D6F5FB",
"'. c #D7F5FB",
"]. c #D0F4FC",
"[. c #D0F5FC",
"{. c #D1F5FC",
"}. c #D3F6FD",
"|. c #D8F3F9",
" X c #D9F4F9",
".X c #DAF4F9",
"XX c #DBF4F9",
"oX c #D8F5FB",
"OX c #DAF4FA",
"+X c #DAF6FB",
"@X c #DAF6FC",
"#X c #DBF6FC",
"$X c #DCF7FC",
"%X c #DEF7FC",
"&X c #E0F5FA",
"*X c #E0F6FB",
"=X c #E1F7FB",
"-X c #E3F7FB",
";X c #E5F7FB",
":X c #E1F7FC",
">X c #E5F7FC",
",X c #E5F8FB",
"<X c #E4F8FC",
"1X c #E6F9FD",
"2X c #E7F9FD",
"3X c #EAF9FB",
"4X c #E8F9FD",
"5X c #E9F9FD",
"6X c #EAF8FC",
"7X c #EBF9FC",
"8X c #EAFAFD",
"9X c #EBFAFD",
"0X c #EDFAFC",
"qX c #EEFAFC",
"wX c #EEFAFD",
"eX c #ECFAFE",
"rX c #EDFAFE",
"tX c #EFFBFE",
"yX c #F0FAFD",
"uX c #F0FBFD",
"iX c #F1FBFD",
"pX c #F0FBFE",
"aX c #F4FCFD",
"sX c #F6FCFE",
"dX c #F7FCFE",
"fX c #F6FDFE",
"gX c #F7FDFE",
"hX c #F8FDFE",
"jX c #F9FDFE",
"kX c #FAFDFE",
"lX c #FAFEFE",
"zX c #FBFEFE",
"xX c #FCFEFF",
"cX c #FDFEFF",
"vX c #FEFFFF",
"bX c white",
/* pixels */
"bXbXbXbXbXbXbXbXbXbXbXbXbXbXbXbXbXbXbXbXbXbXbXbXbXbXbXbXbXbXbXbXbXbXbXbXbXbXbXbXbXbXbXbXbXbXbXbXbXbXbXbXbXbXbXbXbXbXbXbXxXqXXX0.",
"bXbXbXbXbXbXbXbXbXbXbXbXbXbXbXbXbXbXbXbXbXbXbXbXbXbXbXbXbXbXbXbXbXbXbXbXbXbXbXbXbXbXbXbXbXbXbXbXbXbXbXbXbXbXbXbXbXzXsXiX6X.Xq.o.",
"bXbXbXbXbXbXbXbXbXbXbXbXbXbXbXbXbXbXbXbXbXbXbXbXbXbXbXbXbXbXbXbXbXbXbXbXbXbXbXbXbXbXbXbXbXbXbXbXbXbXbXbXbXbXbXbXbXhXwX-X|.0.X.E ",
"bXbXbXbXbXbXbXbXbXbXbXbXbXbXbXbXbXbXbXbXbXbXbXbXbXbXbXbXbXbXbXbXbXbXbXbXbXbXbXbXbXbXbXbXbXbXbXbXbXbXbXbXbXbXbXbXbXaX,X^.7.+.W V ",
"bXbXbXbXbXbXbXbXbXbXbXbXbXbXbXbXbXbXbXbXbXbXbXbXbXbXbXbXbXbXbXbXbXbXbXbXbXbXbXbXbXbXbXbXbXbXbXbXbXbXbXbXbXbXbXbXzX0XOX8.#.` J k ",
"bXbXbXbXbXvXxXlXhXgXgXgXgXhXhXhXhXhXhXhXhXhXhXhXhXhXhXhXhXhXhXhXhXhXhXhXhXhXhXhXhXhXhXhXhXhXhXhXhXhXhXhXhXhXhXhXiX*Xe.#.Q T v u ",
"bXbXbXbXbXxXfXuX8X2X2X2X4X4X4X4X4X4X4X4X4X4X4X4X4X4X4X4X4X4X4X4X4X4X4X4X4X4X4X4X4X4X4X4X4X4X4X4X4X4X4X4X5X8X9X8X=XL.%.E D x f 9 ",
"bXbXbXbXbXlXpX<X#X).).).'.'.'.'.'.'.'.'.'.'.'.'.'.'.'.'.'.'.'.'.'.'.'.'.'.'.'.'.'.'.'.'.'.'.'.'.'.'.'.'.oX#X$X@X~.-.~ N h t q 5 ",
"bXbXbXbXbXjX8X+XT.c.l.c.N.B.B.B.B.B.B.B.B.B.B.B.B.B.B.B.B.B.B.B.B.B.B.B.B.B.B.B.B.B.B.B.B.B.B.B.B.B.B.B.V.R.!.I.t...I j 7 : , 1 ",
"bXbXbXbXbXhX2X_.v.5.3.5.i.p.p.p.p.p.p.p.p.p.p.p.p.p.p.p.p.p.p.p.p.p.p.p.p.p.p.p.p.p.p.p.p.p.p.p.p.p.p.p.s.n.D.b.:.' M r % X @ , ",
"bXbXbXbXbXgX1X(.l.2.1.2.6.i.i.i.i.i.i.i.i.i.i.i.i.i.i.i.i.i.i.i.i.i.i.i.i.i.i.i.i.i.i.i.i.i.i.i.i.i.i.i.p.x.M.z.*.( b w O   O > ",
"bXbXbXbXbXhX2X).c.5.3.5.i.p.p.p.p.p.p.p.p.p.p.p.p.p.p.p.p.p.p.p.p.p.p.p.p.p.p.p.p.p.p.p.p.p.p.p.p.p.p.p.s.b.S.x.:.) m r % X @ , ",
"bXbXbXbXbXhX4X`.N.i.6.i.f.g.g.g.g.g.g.g.g.g.g.g.g.g.g.g.g.g.g.g.g.g.g.g.g.g.g.g.g.g.g.g.g.g.g.g.g.g.g.g.h.C.H.m.>.] C u - + & < ",
"bXbXbXbXbXhX4X'.B.p.i.p.g.h.h.h.h.h.h.h.h.h.h.h.h.h.h.h.h.h.h.h.h.h.h.h.h.h.h.h.h.h.h.h.h.h.h.h.h.h.h.h.j.Z.J.C.,.[ Z i ; # * < ",
"bXbXbXbXbXhX4X'.B.p.i.p.g.h.h.h.h.h.h.h.h.h.h.h.h.h.h.h.h.h.h.h.h.h.h.h.h.h.h.h.h.h.h.h.h.h.h.h.h.h.h.h.j.Z.J.C.,.[ Z i ; # * < ",
"bXbXbXbXbXhX4X'.B.p.i.p.g.h.h.h.h.h.h.h.h.h.h.h.h.h.h.h.h.h.h.h.h.h.h.h.h.h.h.h.h.h.h.h.h.h.h.h.h.h.h.h.j.Z.J.C.,.[ Z i ; # * < ",
"bXbXbXbXbXhX4X'.B.p.i.p.g.h.h.h.h.h.h.h.h.h.h.h.h.h.h.h.h.h.h.h.h.h.h.h.h.h.h.h.h.h.h.h.h.h.h.h.h.h.h.h.j.Z.J.C.,.[ Z i ; # * < ",
"bXbXbXbXbXhX4X'.B.p.i.p.g.h.h.h.h.h.h.h.h.h.h.h.h.h.h.h.h.h.h.h.h.h.h.h.h.h.h.h.h.h.h.h.h.h.h.h.h.h.h.h.j.Z.J.C.,.[ Z i ; # * < ",
"bXbXbXbXbXhX4X'.B.p.i.p.g.h.h.h.h.h.h.h.h.h.h.h.h.h.h.h.h.h.h.h.h.h.h.h.h.h.h.h.h.h.h.h.h.h.h.h.h.h.h.h.j.Z.J.C.,.[ Z i ; # * < ",
"bXbXbXbXbXhX4X'.B.p.i.p.g.h.h.h.h.h.h.h.h.h.h.h.h.h.h.h.h.h.h.h.h.h.h.h.h.h.h.h.h.h.h.h.h.h.h.h.h.h.h.h.j.Z.J.C.,.[ Z i ; # * < ",
"bXbXbXbXbXhX4X'.B.p.i.p.g.h.h.h.h.h.h.h.h.h.h.h.h.h.h.h.h.h.h.h.h.h.h.h.h.h.h.h.h.h.h.h.h.h.h.h.h.h.h.h.j.Z.J.C.,.[ Z i ; # * < ",
"bXbXbXbXbXhX4X'.B.p.i.p.g.h.h.h.h.h.h.h.h.h.h.h.h.h.h.h.h.h.h.h.h.h.h.h.h.h.h.h.h.h.h.h.h.h.h.h.h.h.h.h.j.Z.J.C.,.[ Z i ; # * < ",
"bXbXbXbXbXhX4X'.B.p.i.p.g.h.h.h.h.h.h.h.h.h.h.h.h.h.h.h.h.h.h.h.h.h.h.h.h.h.h.h.h.h.h.h.h.h.h.h.h.h.h.h.j.Z.J.C.,.[ Z i ; # * < ",
"bXbXbXbXbXhX4X'.B.p.i.p.g.h.h.h.h.h.h.h.h.h.h.h.h.h.h.h.h.h.h.h.h.h.h.h.h.h.h.h.h.h.h.h.h.h.h.h.h.h.h.h.j.Z.J.C.,.[ Z i ; # * < ",
"bXbXbXbXbXhX4X'.B.p.i.p.g.h.h.h.h.h.h.h.h.h.h.h.h.h.h.h.h.h.h.h.h.h.h.h.h.h.h.h.h.h.h.h.h.h.h.h.h.h.h.h.j.Z.J.C.,.[ Z i ; # * < ",
"bXbXbXbXbXhX4X'.B.p.i.p.g.h.h.h.h.h.h.h.h.h.h.h.h.h.h.h.h.h.h.h.h.h.h.h.h.h.h.h.h.h.h.h.h.h.h.h.h.h.h.h.j.Z.J.C.,.[ Z i ; # * < ",
"bXbXbXbXbXhX4X'.B.p.i.p.g.h.h.h.h.h.h.h.h.h.h.h.h.h.h.h.h.h.h.h.h.h.h.h.h.h.h.h.h.h.h.h.h.h.h.h.h.h.h.h.j.Z.J.C.,.[ Z i ; # * < ",
"bXbXbXbXbXhX4X'.B.p.i.p.g.h.h.h.h.h.h.h.h.h.h.h.h.h.h.h.h.h.h.h.h.h.h.h.h.h.h.h.h.h.h.h.h.h.h.h.h.h.h.h.j.Z.J.C.,.[ Z i ; # * < ",
"bXbXbXbXbXhX4X'.B.p.i.p.g.h.h.h.h.h.h.h.h.h.h.h.h.h.h.h.h.h.h.h.h.h.h.h.h.h.h.h.h.h.h.h.h.h.h.h.h.h.h.h.j.Z.J.C.,.[ Z i ; # * < ",
"bXbXbXbXbXhX4X'.B.p.i.p.g.h.h.h.h.h.h.h.h.h.h.h.h.h.h.h.h.h.h.h.h.h.h.h.h.h.h.h.h.h.h.h.h.h.h.h.h.h.h.h.j.Z.J.C.,.[ Z i ; # * < ",
"bXbXbXbXbXhX4X'.B.p.i.p.g.h.h.h.h.h.h.h.h.h.h.h.h.h.h.h.h.h.h.h.h.h.h.h.h.h.h.h.h.h.h.h.h.h.h.h.h.h.h.h.j.Z.J.C.,.[ Z i ; # * < ",
"bXbXbXbXbXhX4X'.B.p.i.p.g.h.h.h.h.h.h.h.h.h.h.h.h.h.h.h.h.h.h.h.h.h.h.h.h.h.h.h.h.h.h.h.h.h.h.h.h.h.h.h.j.Z.J.C.,.[ Z i ; # * < ",
"bXbXbXbXbXhX4X'.B.p.i.p.g.h.h.h.h.h.h.h.h.h.h.h.h.h.h.h.h.h.h.h.h.h.h.h.h.h.h.h.h.h.h.h.h.h.h.h.h.h.h.h.j.Z.J.C.,.[ Z i ; # * < ",
"bXbXbXbXbXhX4X'.B.p.i.p.g.h.h.h.h.h.h.h.h.h.h.h.h.h.h.h.h.h.h.h.h.h.h.h.h.h.h.h.h.h.h.h.h.h.h.h.h.h.h.h.j.Z.J.C.,.[ Z i ; # * < ",
"bXbXbXbXbXhX4X'.B.p.i.p.g.h.h.h.h.h.h.h.h.h.h.h.h.h.h.h.h.h.h.h.h.h.h.h.h.h.h.h.h.h.h.h.h.h.h.h.h.h.h.h.j.Z.J.C.,.[ Z i ; # * < ",
"bXbXbXbXbXhX4X'.B.p.i.p.g.h.h.h.h.h.h.h.h.h.h.h.h.h.h.h.h.h.h.h.h.h.h.h.h.h.h.h.h.h.h.h.h.h.h.h.h.h.h.h.j.Z.J.C.,.[ Z i ; # * < ",
"bXbXbXbXbXhX4X'.B.p.i.p.g.h.h.h.h.h.h.h.h.h.h.h.h.h.h.h.h.h.h.h.h.h.h.h.h.h.h.h.h.h.h.h.h.h.h.h.h.h.h.h.j.Z.J.C.,.[ Z i ; # * < ",
"bXbXbXbXbXhX4X'.B.p.i.p.g.h.h.h.h.h.h.h.h.h.h.h.h.h.h.h.h.h.h.h.h.h.h.h.h.h.h.h.h.h.h.h.h.h.h.h.h.h.h.h.j.Z.J.C.,.[ Z i ; # * < ",
"bXbXbXbXbXhX4X'.B.p.i.p.g.h.h.h.h.h.h.h.h.h.h.h.h.h.h.h.h.h.h.h.h.h.h.h.h.h.h.h.h.h.h.h.h.h.h.h.h.h.h.h.j.Z.J.C.,.[ Z i ; # * < ",
"bXbXbXbXbXhX4X'.B.p.i.p.g.h.h.h.h.h.h.h.h.h.h.h.h.h.h.h.h.h.h.h.h.h.h.h.h.h.h.h.h.h.h.h.h.h.h.h.h.h.h.h.j.Z.J.C.,.[ Z i ; # * < ",
"bXbXbXbXbXhX4X'.B.p.i.p.g.h.h.h.h.h.h.h.h.h.h.h.h.h.h.h.h.h.h.h.h.h.h.h.h.h.h.h.h.h.h.h.h.h.h.h.h.h.h.h.j.Z.J.C.,.[ Z i ; # * < ",
"bXbXbXbXbXhX4X'.B.p.i.p.g.h.h.h.h.h.h.h.h.h.h.h.h.h.h.h.h.h.h.h.h.h.h.h.h.h.h.h.h.h.h.h.h.h.h.h.h.h.h.h.j.Z.J.C.,.[ Z i ; # * < ",
"bXbXbXbXbXhX4X'.B.p.i.p.g.h.h.h.h.h.h.h.h.h.h.h.h.h.h.h.h.h.h.h.h.h.h.h.h.h.h.h.h.h.h.h.h.h.h.h.h.h.h.h.j.Z.J.C.,.[ Z i ; # * < ",
"bXbXbXbXbXhX4X'.B.p.i.p.g.h.h.h.h.h.h.h.h.h.h.h.h.h.h.h.h.h.h.h.h.h.h.h.h.h.h.h.h.h.h.h.h.h.h.h.h.h.h.h.j.Z.J.C.,.[ Z i ; # * < ",
"bXbXbXbXbXhX4X'.B.p.i.p.g.h.h.h.h.h.h.h.h.h.h.h.h.h.h.h.h.h.h.h.h.h.h.h.h.h.h.h.h.h.h.h.h.h.h.h.h.h.h.h.j.Z.J.C.,.[ Z i ; # * < ",
"bXbXbXbXbXhX4X'.B.p.i.p.g.h.h.h.h.h.h.h.h.h.h.h.h.h.h.h.h.h.h.h.h.h.h.h.h.h.h.h.h.h.h.h.h.h.h.h.h.h.h.h.j.Z.J.C.,.[ Z i ; # * < ",
"bXbXbXbXbXhX4X'.B.p.i.p.g.h.h.h.h.h.h.h.h.h.h.h.h.h.h.h.h.h.h.h.h.h.h.h.h.h.h.h.h.h.h.h.h.h.h.h.h.h.h.h.j.Z.J.C.,.[ Z i ; # * < ",
"bXbXbXbXbXhX4X'.B.p.i.p.g.h.h.h.h.h.h.h.h.h.h.h.h.h.h.h.h.h.h.h.h.h.h.h.h.h.h.h.h.h.h.h.h.h.h.h.h.h.h.h.j.Z.J.C.,.[ Z i ; # * < ",
"bXbXbXbXbXhX4X'.B.p.i.p.g.h.h.h.h.h.h.h.h.h.h.h.h.h.h.h.h.h.h.h.h.h.h.h.h.h.h.h.h.h.h.h.h.h.h.h.h.h.h.h.j.Z.J.C.,.[ Z i ; # * < ",
"bXbXbXbXbXhX4X'.B.p.i.p.g.h.h.h.h.h.h.h.h.h.h.h.h.h.h.h.h.h.h.h.h.h.h.h.h.h.h.h.h.h.h.h.h.h.h.h.h.h.h.h.j.Z.J.C.,.[ Z i ; # * < ",
"bXbXbXbXbXhX4X'.B.p.i.p.g.h.h.h.h.h.h.h.h.h.h.h.h.h.h.h.h.h.h.h.h.h.h.h.h.h.h.h.h.h.h.h.h.h.h.h.h.h.h.h.j.Z.J.C.,.[ Z i ; # * < ",
"bXbXbXbXbXhX4X'.B.p.i.p.g.h.h.h.h.h.h.h.h.h.h.h.h.h.h.h.h.h.h.h.h.h.h.h.h.h.h.h.h.h.h.h.h.h.h.h.h.h.h.h.j.Z.J.C.,.[ Z i ; # * < ",
"bXbXbXbXbXjX5XoXV.s.d.s.h.j.j.j.j.j.j.j.j.j.j.j.j.j.j.j.j.j.j.j.j.j.j.j.j.j.j.j.j.j.j.j.j.j.j.j.j.j.j.j.k.G.W.A.<.{ A i ; # * < ",
"bXbXbXbXbXxXrX$XE.b.x.b.C.Z.Z.Z.Z.Z.Z.Z.Z.Z.Z.Z.Z.Z.Z.Z.Z.Z.Z.Z.Z.Z.Z.Z.Z.Z.Z.Z.Z.Z.Z.Z.Z.Z.Z.Z.Z.Z.Z.Z.F.Q.{.W.u.} G p ; # * < ",
"bXbXbXbXbXvXtX%X].D.S.D.H.J.J.J.J.J.J.J.J.J.J.J.J.J.J.J.J.J.J.J.J.J.J.J.J.J.J.J.J.J.J.J.J.J.J.J.J.J.J.J.Y.{.}.[.a. .H p ; + * < ",
"bXbXbXbXbXxXeX#XU.x.z.x.m.C.C.C.C.C.C.C.C.C.C.C.C.C.C.C.C.C.C.C.C.C.C.C.C.C.C.C.C.C.C.C.C.C.C.C.C.C.C.C.Z.Q.[.W.r.} G p ; # * < ",
"bXvXcXzXkXiX:XP.t.;.=.;.>.,.,.,.,.,.,.,.,.,.,.,.,.,.,.,.,.,.,.,.,.,.,.,.,.,.,.,.,.,.,.,.,.,.,.,.,.,.,.,.,.y.f.4.&.! M u ; $ = < ",
"bXxXdXiX7X&XK.-.| _ / _ ] [ [ [ [ [ [ [ [ [ [ [ [ [ [ [ [ [ [ [ [ [ [ [ [ [ [ [ [ [ [ [ [ [ [ [ [ [ [ [ { }  .} ^ Y z r : = - 1 ",
"bXlXyX;X Xw.$.~ U m n m C Z Z Z Z Z Z Z Z Z Z Z Z Z Z Z Z Z Z Z Z Z Z Z Z Z Z Z Z Z Z Z Z Z Z Z Z Z Z Z Z G K S M z d 0 2 ; < 2 ",
"bXaX>X/.0.#.R B j r w r u i i i i i i i i i i i i i i i i i i i i i i i i i i i i i i i i i i i i i i i i a s a y r 0 6 3 2 2 3 ",
"xX3X|.9.#.Q F g 8 % O % - ; ; ; ; ; ; ; ; ; ; ; ; ; ; ; ; ; ; ; ; ; ; ; ; ; ; ; ; ; ; ; ; ; ; ; ; ; ; ; ; ; ; ; ; < 2 3 3 3 3 3 ",
"qX.X8.@.` P x e : o . o + # # # # # # # # # # # # # # # # # # # # # # # # # # # # # # # # # # # # # # # # + + + & = ; 2 3 4 3 3 ",
"XXq.+.W L c f q ; + O + * * * * * * * * * * * * * * * * * * * * * * * * * * * * * * * * * * * * * * * * * * * * = - < 2 3 3 3 3 ",
"0.O.E V l y 0 6 2 ; - ; < < < < < < < < < < < < < < < < < < < < < < < < < < < < < < < < < < < < < < < < < < < < < 1 2 3 3 3 3 3 "
};
