/* XPM */
static char *result[] = {
/* columns rows colors chars-per-pixel */
"64 64 70 1 ",
"  c #EFA417",
". c #EEA51C",
"X c #F0A315",
"o c #EDA721",
"O c #EDA824",
"+ c #EBAB2B",
"@ c #EAAD34",
"# c #E8AF39",
"$ c #E8B03D",
"% c #E7B243",
"& c #E8B140",
"* c #E5B54B",
"= c #E4B751",
"- c #E4B854",
"; c #E2BB5B",
": c #DFBF69",
"> c #E1BE63",
", c #E0BF69",
"< c #DFC16D",
"1 c #DEC374",
"2 c #DCC57B",
"3 c #DBC87F",
"4 c #E0C067",
"5 c #5FCDE4",
"6 c #66CFE5",
"7 c #6DD2E7",
"8 c #73D4E8",
"9 c #79D6E9",
"0 c #DBC780",
"q c #DAC985",
"w c #D9CB8C",
"e c #D7CE94",
"r c #D8CD91",
"t c #D7CF98",
"y c #D6D19C",
"u c #D4D3A5",
"i c #D3D6AB",
"p c #D2D8AD",
"a c #CFDCBD",
"s c #D2D7B0",
"d c #D1D9B4",
"f c #D0DBBB",
"g c #88DBED",
"h c #94DFEF",
"j c #96E0EF",
"k c #97E0F0",
"l c #99E1F0",
"z c #AAE7F4",
"x c #ADE8F4",
"c c #B2EAF5",
"v c #BDEEF7",
"b c #BEFAFF",
"n c #CEDEC3",
"m c #CDDFC8",
"M c #CDE0C5",
"N c #CCE1CC",
"B c #CBE3D3",
"V c #CAE6DB",
"C c #C9E7E0",
"Z c #C7EBE5",
"A c #C8E9E2",
"S c #C6ECEC",
"D c #C8EBE8",
"F c #C5EEF4",
"G c #C0EFF8",
"H c #C4F0F4",
"J c #C4F0FA",
"K c #CAF2FA",
"L c #C0F8FF",
"P c #D1F5FC",
/* pixels */
"5555655555555555665655655665665665655655655655655555655555655655",
"5678899998999999998898998888998888998998998998998999999999998998",
"679gkkkkkkkhhhhhhhhhhhhhhhhhhhhhhhhhhhhhhhhhhhhhhhhhhhhkhhhhhhhh",
"58glzcccxxzxxxxxxxxcxxxxxxxxxxxxxxxxxxxxxxxxxxxxxxxxxxxxzzxxxxxx",
"58hzvJKJGGGJGGGGGGGGGGJJGGGGGGGGGGGGGGGGGGGGGGGGGGGGGGGGGGGGGGGG",
"69lcJPPPKKKKKKKKKKKKKKKKKKKKKKKKKKKKKKKKKKKKKKKKKKKKKKKKKKKKKKKK",
"59lcKPPPKKKKKKKKKKKKKKKKKKKKKKKKKKKKKKKKKKKKKKKKKKKKKKKKKKKKKKKK",
"59jxFKPKKKKJKKKKFKKKKJKKKKKKKKKJKKKKKJKKKKKKKKKKKKKKKKKGKKKKKKKK",
"69hxGKKKKFGKGKFGFJKJFJJJKGKGKGKGJJKKKKGGKGKGKGKKFFFJJJJFGKJJKJJJ",
"59hxGKKKJJKGKGGKJJFJJJFJGKGKGKGKJJGFGGGKGKGKGKGGJJJFJJJJGGJJFGJJ",
"59hxGKKKJJJGGKGKJJJJFJJJGKGGKGGGFJGJGKKGKGGKKGGKFFJJFJJJKKGJJJJK",
"59hxGKKKFJGKGGKGFJJJJJFJKGKGKGKGJJJJKGGKGGKGGGKGFFJJJJJJGGKGJJFK",
"59hzGKKKKGKGKGGKJJKGJGGKGGKGKGKKJJGGKGGGKGGGKGKGFJFJJJJJJJFJFJJJ",
"59hzGKKKGKGGGKKGJJFGJKGGKGGKGGGGFJGFGKKGKGKGGKGKFJJJFJJJJJJJJJFJ",
"69hxGKKKKGGKGGGGJJJJJJGKKGGKLJGGJKGLJLGJGGKKGKGGJFFJJJGJJJJJJJJJ",
"59hxGKKKKGKGKKGKGFKJJJGKGGKGKJJLGGJKKLLJGKGGKGKGJJJJJFJJJFJJFJJJ",
"59hxGKKKJJFJFJFJJJJFJJFJGJJJJLLLLLJGLLLJJJGGGGKGJJJJJFJJFJJJJJJJ",
"59hxGKKKJFJJJJJJJFJJJJJJJJGKKGKGGJJKGKGGJGKFKKGGFJJFJJJJJJFJJFJF",
"59hzGKKKKFJFJJJJJJJFJJFGJJGFAVBNBBBBBBNVDSJLGJGKJJJJJFFJFJJJJJJJ",
"59hzGKKKJJJJFJFJJFJJJGKGLKGAmurwwrrrwwwufVJbKJKGFJJFJJJJJJFJFJFJ",
"69hxGKKKJJJJJJJJGKKGJJJGLLLBu,-**=--***:emFKLLGGJJJJJJFJJFJJJJFJ",
"59hxGKKKFJFJFJFJKGGKJJGKLbFnw-+oo+@+OoO%2dSLLLGKFJJJFKJJJJJJJJJJ",
"58hxGKKKJJJJJJFJGGGGGGKFSDBs2-@++@#@@+@*,umSSFKGJJJJGJJJJFGJJFFJ",
"69hxGKKKJFJFJJJJGKKGKFFCnsywq,,>>,,,>;>10rudnVSGGJJJJJFJJJFJJJJJ",
"59hxGKKKGGKGJJJJKKGGLGSfr<><qyiuiiiiiiiur2,2rdCKGGGJJJFJJFJFJFJJ",
"58hxGKKKKGGKFJJFGGJKKGAi4%#;rnDDDDAADDDNi,=%>uVGJGKJFJJJJJJJJJJJ",
"59hxGKKKJJGKJJJJJJJLLGCi,##>yCLLLLJLbbbSi>@O-wBGKLKGJJFJJJJJJJFJ",
"59hxGKKKJJJGFJJFGGJJLJAdq>;2dDLLLLLLbbbFs>O.&qmLLLGJFJJJJFJFJFJJ",
"59hxGKKKKKJJJJJJKGGKJJSBsytsBFLLLLLLbbbvs>o &qNKLLGKJJJJJJJJJJJF",
"59hxGKKKGFJJFJJFGKGKJJKSVVVCDFJJLLLLbbbHs>+.*wBGLGGGFJFJJJFJFJJJ",
"59hxGKKKJJKGJFJJGKGGJKGJGLJJGJJJFFHJJLJVi,#@;eBKLLGKJJJJFJJFFJJJ",
"59hzGKKKJJFGJJJJKGGKJGJJJKLJJJJFCBMMMMNat2>>0iCGGJKGFJJFJJJJJJJF",
"69hxFKKKJJJJJJFJKGGKGJJJJJbKLLFCntw2220wwrtudBSGJJJJGKGGKGGKGGKG",
"68hxGKKKJFJFFJJJGGKGKJJKJGLJGJFVu1-###%;2umCDSFJJJJJKGGKGKGKKGGK",
"58hxGKKKFJJJJJFJKGGKGGGGJJGJJLFNr;@. .O%1sAJLKLJGKJJKGGKGKGGGKKG",
"68hxGKKKJJJJFJJJKGGKGKKGJJJJLJFNy,&+O+#*2iBFHHGFJJJJGKGGKGGKGGKG",
"68hxGKKJJFGJJJJJGGKGKGKKLGJKLGKCfr2::<<2qtudMVFGJJKGKGGKJJGFKJJJ",
"58hxGKKKKFJJFJFJKGGKGGGGLLLLLJFSVnddddditq<1wdCJLKGGKGGKJJGKGJJJ",
"69hxJKKKFJJJJJJJGKGKGKGKJGLGGKFKFSSSSHFVu4%$>tBJLLGKGGKGJFJJJGJJ",
"59hxJKKKJJJFJFJJGGKGGFKFSADDFFGGJGLbbbbDp>@o*wBGLGJGKGGKJJJJJFKJ",
"58hxGKKJJJJKFGJJKGKJLJFVapiaBFLLLLLbbbbHd>oX%qNFJGJJJJJJJJJFJJFJ",
"69hxGKKKKGJJJGJGGKJJJJDfw<<wfSLbLbLbbbbvp>O %qNLKGJJFJFJJFJJJJJJ",
"58kxGKKKKGKGJJJFGKGJLJCi<$#<uCLLLLLLbbLSd>+o*wBJLLJJGJFJJJJFJFFJ",
"58kxGKKKGKGGJJJKKGGGLJVi<#@-eNFFFFSFHHFVu4%$;yBJLLJJJJJJJFJJJJJJ",
"69hxGKKKKGGKKGGKGKLKJLDfq;-<quffdndfaaade1,,qdCJGKJJJJJJJJJJJJJF",
"69hxGKKKGKKGGKGGGGGJJJSBdyrq032<12221113qreudNSJGGKGFJJFJJFJFJJJ",
"58hxGKKKKGKGGKGKKGJJJJFFDVmu0;&###%&###*1ynCZSFFJJGJJJJJFJJFFJJJ",
"68hxGKKKGKGGKGKGGKGJJFJJKJSnq*+..+++ooO%1sAJLLJJGKGJFJJFJJJJJJJF",
"59hxGKKKKJJJJJJJJJJJJJGGJbGBt,%#&**%##&;wnFLKGJFJKGKGKGGKGFGGJJJ",
"58hxGKKKJJFJFJJFJJJFJFKGKbJAft022,q0222rsVFKLGJJJGKGGKKGGKKJJJJJ",
"69hxGKKJKJJJJJJJFGFJJJJJKJGSCNnnnnnnnnnmVSGGLGJJGGGGKGGKJJJJJJKF",
"59hxGKKKFGJJFJJFJJJJJFJJLGKGFFSFFFFFFSFFFFKGKGJJKKGKGGKGJJJJJJJG",
"58hxGKKKJFJFJFJJJJJJJJJJFGGGKJJLGJJLLLGLLGKGFJJJGKGGKGKGFJFJFJFJ",
"68hxGKKKJJJJJJJJFJFJFJFJKGKGJLGLJLLLLLLJLGGKJJJFGGKGGKGKJJJJJJJJ",
"68hxGKKKJJJJJJFJJJJJJJFJGGKGJJLLJJGJJKJGKGGKJJJFKGKKGKGGJJJJJFJF",
"58hxGKKKJFJFJFJJJFJFJJJJKGGKJJGKJGKGJJGKGGKGFJJJGKGGKGGKFJFJJJJJ",
"69hxJKKKJJJJJJJFJJFJFJFJFKJJJJFKJJKGKGGKFJJFJJJJJFJJJJJJJJJJJJJF",
"68hxFKKKJFFJFJJJJJJJJJJJGJJJJGGJJJGJGKKGJJJJFJJFJJJFFJFJFJJFFJJJ",
"58hxGKKKKJFJFJJJJFJJJJJJJJGJJJJJJJJJGGGGFJJFJJFJJFJJJJFJJJFJFJJJ",
"68hxGKKKFJJJJJJFJJFJFJFJFJFKJJJJJJFJKKGKJJJJJJJJJJJFJJJJJJJJJJJF",
"59hxGKKKJJJJJFJJFJJJJJJJGJJJGKGJKGGKGGKGJJJJJJJJJJJJJJJJJJJJJFJJ",
"58hxGKKKJFJJJJFJJJJFJFJFJJJFGKKGGGKGKGGKJJFJJFJFJFJFFJJFJFJJJJFJ",
"69kxGKKJKFJJJJJJFJJFJFJJJJJJKGGKKGKGGKKGGJJFJFJJJJJJJJJFFJJFJJGJ",
"68hxGKKKJFGFJFJJJJJJJJJJFJFJGGKGGKGKGGKGFJJJJJJJFJFJFJJJJJJJFJJJ"
};
