/* XPM */
static char *result[] = {
/* columns rows colors chars-per-pixel */
"64 64 81 1 ",
"  c #E2620E",
". c #E16513",
"X c #E16817",
"o c #E06B1C",
"O c #DF7126",
"+ c #DE742C",
"@ c #DE7730",
"# c #DD7933",
"$ c #DC7E3B",
"% c #E06E21",
"& c #E07024",
"* c #DC803F",
"= c #DB8243",
"- c #DB864A",
"; c #DA884C",
": c #D98C54",
"> c #D88F59",
", c #D7945E",
"< c #D8935D",
"1 c #D79563",
"2 c #D89662",
"3 c #D79967",
"4 c #D69B6C",
"5 c #D59F73",
"6 c #D5A174",
"7 c #D4A57C",
"8 c #5FCDE4",
"9 c #66CFE5",
"0 c #6DD2E7",
"q c #73D4E8",
"w c #79D6E9",
"e c #D4A780",
"r c #D3AA84",
"t c #D2AE8A",
"y c #D2B08D",
"u c #CFBC9E",
"i c #D1B394",
"p c #D1B69A",
"a c #D0B99D",
"s c #CFBDA4",
"d c #CFBFA8",
"f c #D0BBA0",
"g c #CEC1A6",
"h c #CEC2AB",
"j c #CDC6B3",
"k c #CDC8B6",
"l c #CCCCBD",
"z c #CBD1BF",
"x c #88DBED",
"c c #94DFEF",
"v c #96E0EF",
"b c #97E0F0",
"n c #99E1F0",
"m c #AAE7F4",
"M c #ADE8F4",
"N c #B2EAF5",
"B c #BDEEF7",
"V c #BFFFFF",
"C c #CBCFC1",
"Z c #CBD1C5",
"A c #CAD6CD",
"S c #C9DACD",
"D c #C9D7D0",
"F c #C7DED7",
"G c #C9DAD3",
"H c #C7DFDD",
"J c #C8DEDA",
"K c #C7E0D7",
"L c #C7E1DD",
"P c #C8E0DF",
"I c #C7E4E4",
"U c #C5E9E7",
"Y c #C6E7E9",
"T c #C5EAED",
"R c #C5EDF3",
"E c #C1EFF8",
"W c #C4F1F4",
"Q c #C4F0FA",
"! c #CAF2FA",
"~ c #C2FAFF",
"^ c #D1F5FC",
/* pixels */
"8888888988888888988888988888988888988988988988888888888888888888",
"890qwwwwwqwwwwwwwwwwwwwwwwqwwwwwwwwwqwwqqwqwwqwwwwwwwwwwwwwwwwww",
"90wxcbnvbbcccccccccccccbcccccccccccbccccccbbbccccccccccbcccccbcc",
"8qxnmNNNMMMMMMMMMMmmmmmMMMMmMMMmmmmMMMMmMMMMMMMMMMMMMMMMMMMMMMmM",
"8qcmBQ!QEBQQBEEBEEEEEEEEEEEEEBEEBEEEEEEEEEEEEEEEBEEBEEBEEBEBBEEE",
"9wnNQ^^!!!!!!!!!!QQ^!!!Q!^^Q!!!!!!!!!!!!!!!!!!!!!!!!!!!!!!!!!!!!",
"8wnN!^^^!!!!!!!!^^^^!!^^!^^^^Q^^^!^!!!!!!!!!!!!!!!!!!!!!!!!!!!!!",
"8wvME!^^!!Q!!!!!QQEQQ!Q!EQEQE!QQ!EE!!!!!!!!E!!!!!!!!!!!!!!!!!!!!",
"9wcME!!!!EE!EE!EE!EE!E!QE!!EE!!EEE!E!E!E!!E!!E!!Q!!EE!!E!EE!EE!E",
"8wcME!!!QQ!EE!!E!E!EE!EEEEE!EEE!E!E!EEE!EEEEEEEEEEEE!EEE!EE!E!!E",
"8qcME!!!!!EEEEE!!EEEEE!!!E!E!E!EEEE!E!E!!E!EE!E!!EE!EEE!EEEEE!EE",
"9wcME!!!EEE!!!EEEE!!!EEE!EEE!EEE!!EEE!EEEE!EE!EE!E!EE!!EE!!EEEE!",
"8wcME!!!E!!EEEE!!EEEE!!EEE!EEE!!EE!E!E!EE!QQE!!EEEQQE!EE!EEE!!E!",
"8qcME!!!!EEEE!EEEE!EEEEEE!!EEEEEE!EE!EEEEEQEEEEEE!QQE!E!EE!!EEEE",
"8wcME!!!EEE!!E!EE!E!!EE!E!EEQ~Q!EQ~E!EQE!QQQ!E!!E!QQEE!E!EEE!E!E",
"8wcME!!!E!E!EE!EE!EE!EE!EEE!QQV~~!~~V~~~!QQQEEEEEQQQ!EEE!E!EEE!E",
"8wcME!!!!EEE!E!EE!E!EEE!E!E!~~~~~~~~~V~~~QQQEQQE!Q!EE!EEE!QQQQQQ",
"8wcME!!EE!!E!EEEEEE!E!EEEEE!EE!E!EEEE!EQQQQQ!EQQEE!EE!E!!EQQQQ!Q",
"8wcME!!!EEEEEE!!!!EEE!QQQ~QRIJDDADGDDDDGITQ!QQQQ!EEEEE!EEEEQQQRE",
"8wcME!!!!E!!!EEEEEE!EEE!~~!ICfytttyytrtpkJE~~~!QRE!Q!EEEE!QQQQQE",
"8wcME!!!!EEE!EEEEQQQ!!E~~~~Ga4;==-:;==-1yZE~~~~EEE!EE!E!QQRQQQQQ",
"8wcME!!!E!!EEE!!!QQQEE!~~~RCr-Oo%%&&oo&$5kY~~~!EQQEEEEE!QQQQQQR!",
"8wcME!!!EEEEE!EEEEQQ!EERTUGh7;@O&@#@O&+=4fAYTE!EQE!!!!EEQQQQQQEE",
"8wcME!!!!E!!EE!EE!QQ!ETJzhpt742<2111,<137tajCJTE!EEEEEE!QQQQQQQQ",
"8wcME!!!EE!EEE!EEEQ~~QYly3,3epdgddfhhgffy745ykP!!~EQQRQQQQRQQQQQ",
"8wcME!!!!E!E!EE!!EE~~QIs3$#:tZIUYIIIUUTGf3=*2aJEVQ!QQQQQQRQQQQQQ",
"8wcME!!!E!EE!EEE!EE~~QIs1#@<aL~~~~~~~~~Yd2&%-tDEQ~EQQQQQQQQQQQQR",
"8wcME!!E!EE!EE!!EQQ!~QIje>>7jT~~~~~~~~~Ej>%.$rA!~~EQQQRQQQQQQQQQ",
"8wcME!!!E!E!EEEEE!!Q~ETDhpidGR~~~~~~VVVWj>%.$rD!~~QEQQQQQQQQQQQR",
"8wcMB!!!EEE!E!!EEEEQQ!ETHFJPYEQQEE!~~~~Rd2%X=rDE~~!EQRQQQQRQQQQQ",
"8wcME!!!!EEEE!EE!!E!EEEQQ!EEEEEE!EEQQ~QId1$&:yGE~~~EQQQQQQQQRQQQ",
"8wcME!!!E!!E!EE!EEEEE!!Q~~~~!E!!Q!~WUKSki4>>7dHEQ~!EQQQQRQQQQQQQ",
"9wcMB^!^E!!E!EE!E!!EEQQQ~~~~QQEQ~~~RAft777tihZIQ~!QQEE!!E!EE!!EE",
"8wcMEE^Q!EEEEE!EEEEEQQQ!EQEQQ!E~V~~Yh6;-1tkAKTREE!QQ!EEEEE!EEEE!",
"8wcmBQ!QE!E!E!!E!EE!QQEEEEE!QQQ!~~~Jp:+@,uLQ~~QEQEQQ!EEE!!EE!EE!",
"8wcmE^^QEEE!EEEE!EE!EQ!EE!EQ~QQETIFjr:*=6jR~~~~EEEQQEE!!EEE!EE!E",
"8wcmE!^!!EE!EE!!EEE!E!EEEE!!~~~TShpr6447uSW~~~QEE!E!EEEEEEE!EE!E",
"8wcmE!!EE!EE!EEEE!EEE!E!!EE~~~~Lg6::4yhzSTQ~~~Q!!EE!E!!E!!EE!E!E",
"9wcME!^Q!E!E!EEE!E!EEE!EEEE~VVQSt-+*4hPRWQQQEQQEEEEEEE!EEE!EE!EE",
"8wcMEQ!^EE!EEE!!EE!E!EEQ!!!EWTIk7=#=7ZQ~~~QQ!EQEE!!E!EE!E!E!EEE!",
"8wcMEQ^EEE!!EEEEE!EE!!E!~~~TGlhi7437hL~V~~~~!QQQQQQQQQQQE!QQQQQ!",
"9qcME^^Q!EEEE!!EEE!EEE!~~~!Hhr66rahzKQ~VV~~~~!QQQRQQQQQQEEQQQQEE",
"8wcME!!QE!!EEE!!!!EEEEQV~~EZr:*:rlUWQ~~~~~~~EEEERQQQQQRQ!!EQQQQ!",
"8qcmE!^Q!EEE!EEEEEE!!EEQWEId3#o*7ZT~WERTTTTTT!Q!QQQQQRQQEEQQQEER",
"9wcME^QQEE!!!EEEQQQQ!!EYGZh7-o +2aZSSzlkjjkCZPTEEE!EQQQQQQQQQQQQ",
"8wcMEQ^!!EEEEE!!QQQQ~ETAdr4-+. o*37r77644455pCI!!E!EQQQQQQRQQQQQ",
"8wcME!^E!EEEE!QEQQQ~~~Ije;@%X..o&#===**$#+@=4dJE~~Q!QQQQQQQQQQ!R",
"8wcMEQ^QEE!!EEQEQQQQ~QId5$oXoO+++&OOOOOO%Xo@2pGE~VQQQERQQQQQQQEE",
"8wcmE!Q!EE!EE!RE!EQQ~QIke:$$=;:;-==*===$$#$-5dHQQ~EEE!EEE!EE!!E!",
"8wcmE!^!!EEE!EEEEEQ~~QYAdt77erttreee77e7575rsCI!Q~!EE!E!EE!EEEEE",
"9wcmB!Q!EE!!QQQQE!Q!QQEIGCllCZZZZCCCCCCCCllCDPREQQQQEE!E!!EE!E!E",
"8wbME!^!!EEEQQQQE!EEEQEE!RRRRRETRRTETRRRRRRRREQQQE!E!EEEEEE!EE!E",
"8wcME!Q!QQQQQREE!EE!E!QQ!~~~~Q~~Q~~~~~Q~~Q~~!QQQQQEE!EE!EEE!EE!E",
"8wcmE!^!QQQQQ!QQEE!EEEQ!~Q~~~~~~~~~Q~V~~~~~~E!QQEE!E!EE!!!EE!E!E",
"8wcmE!^!QQRQQQQQE!E!EE!EQQV!Q~Q~Q~Q~~QQ~Q~!QEQQQ!!EEEEEEEE!EEEEE",
"8wcmE!!EQRQQQQQQE!EEE!EEE!EEQQQQQQ!EQQQQQQQQQQQREEE!E!!EE!EE!!E!",
"9wcMQ!!Q!QQQQQRQE!EEE!E!E!!E!EE!EE!EEE!EQQQQQQQQQQQQ!EEEE!E!EEE!",
"8wcMR!!!QQQQQQQQE!E!EEE!EEEEEE!EE!EE!E!EQRQQQQQQQQQQEE!!!EE!E!EE",
"8qcME!!!QQRQQQQQEE!E!EEE!EE!E!!EEE!!E!EEQQQQRQQQQQQQE!EEEEEEE!!E",
"9wcME!!!QQQQQQQQ!EEEE!!EE!E!EEEE!EEEEEE!QQQQQQQQ!QE!EE!EE!!EEEE!",
"8wcME!!QRQQQRQQQ!EE!EEE!EE!EEE!!EEE!!!EEQQRQQQQQRQQQE!EE!EEE!!EE",
"8qcMQ!!!QQQQQQQQEE!E!!EE!E!E!EEE!!EEEEE!QQQQQQQQEEQQ!EE!EE!!EEE!",
"9wcMQQ!!QQQQQQQRE!E!EEE!E!EE!EEEEE!EEEE!QQQQQQQQ!QQQ!EEEE!EEEEE!",
"8wcMR!!!QQRQQQQQE!EEE!E!EEE!EE!!E!EE!!EEQQQQEREERQQQEE!!EE!E!!EE"
};
