/* XPM */
static char *result[] = {
/* columns rows colors chars-per-pixel */
"64 64 59 1 ",
"  c #5364DF",
". c #5668DF",
"X c #5567E0",
"o c #5769E0",
"O c #5A6DE1",
"+ c #5E71E1",
"@ c #6175E2",
"# c #657AE3",
"$ c #697FE4",
"% c #6C83E5",
"& c #7087E5",
"* c #738BE7",
"= c #768FE8",
"- c #7791E7",
"; c #7892E7",
": c #7791E8",
"> c #7A94E8",
", c #7E9AE9",
"< c #5FCDE4",
"1 c #66CFE5",
"2 c #6DD2E7",
"3 c #73D4E8",
"4 c #79D6E9",
"5 c #819DEA",
"6 c #85A2EB",
"7 c #89A7EC",
"8 c #8DABEC",
"9 c #90AFED",
"0 c #93B4EE",
"q c #97B8EF",
"w c #99BBEF",
"e c #9BBEF0",
"r c #88DBED",
"t c #94DFEF",
"y c #9EC1F0",
"u c #A1C5F1",
"i c #A6CAF2",
"p c #A8CEF3",
"a c #ADD4F4",
"s c #B0D7F4",
"d c #B4DCF5",
"f c #96E0EF",
"g c #97E0F0",
"h c #99E1F0",
"j c #AAE7F4",
"k c #ADE8F4",
"l c #B7E0F6",
"z c #BAE4F7",
"x c #B2EAF5",
"c c #BEEAF7",
"v c #BDE7F8",
"b c #BFE9F8",
"n c #C1EEF8",
"m c #C4F0F9",
"M c #CAF3FA",
"N c #CCFAFB",
"B c #D1F5FC",
"V c #D2FFFC",
"C c #D9FFFE",
/* pixels */
"<<<<<<<1<<<<<<<<1<<<<<<<<<<<<<<<<<<<<<<<<<<<<<<<<<<<<<<<<<<<<<<<",
"<123444443444444444444444444444444444444434444434444344444443444",
"124rtghgggttttttttttttttttttttttttttttttggggggttttggggggggttttgf",
"<3rhjxxxkkkkkkkkkkkkkkkkkkkjkkkkkkkkkkkkkkkkkkkkkkkkkkkkkkkkkkkk",
"<3tjcmMnnnnnbmbcnnnnnnnnnbnnnbnnnnnnbnnbbbbccmbbccbcmcbcnnbnccmc",
"14hxmBBBMMMMMMMNMMMMMMMMMMMMMMMMMMMMMMMMMMNMNMMMmNMMMNMMMMMMmMMN",
"<4hxmBBBMMMMMMMMMMMMMMMMMMMMMMMMMMMMMMMMMMMMMMMMMMMMMMMMMMMMMMNM",
"<4fkmNBMMMMMMmMMMMMnMMnMMMMMMMMMMMnMMMMMMMMMMMMMMMMMMMMMMMMMMMmM",
"<4txvBMMMnMmmmmmmmmmmmmMmmmmmmmmmmmmmmmmmmmMmmmmnMnMMnnMnMnnMnMn",
"<4tknMMmMnnnnmmmmmmmmmnmmmmmmmmmmnmmmmmmmmnnmmmmnnMnnnMnnnMnnMMn",
"<4tknMMMnnMMmmmmmmmmmmmmmmmmmmmmmmmmmmmmmmmmmmmmMnMnMnMnMMnnnMnn",
"<4tdnMMMMnnnmmmmmmmmmmmmmmmmmmmmmmmmmmmmnmmmmmmmMnnnMnnMnnnMnnnM",
"<4tjnMMMmmmmmmmmmmmmmmmmmmmmmmmmmmmnMnmmMnmmmmmmnnMnMnnnnMMnMnnM",
"<4tjnMMMmmmmmmmmmmmmmmmmmmmmmcmmmmnMnmmmmmmmmmmmnMMnnnMnnnnnnMnn",
"14txnMMMmmmmnmmmmmmcmmmmmmmmmMMMMMMMMMmmMmmmmmmmnMnnnMnMMnnMMnMn",
"<4tjnMMMmmmmmmmmmmmmmmmmmmmmMMNNMNNMNNNNMmmmbmmmnnnMnMnnMnMnnnMn",
"<3tjnMMMmmmmmmmvMmnmmmmmmmmmMNNNNNNNNNNNNNcMcNNcMMnMnMnnnMnMnnMn",
"14txnMMmmmmmmmmmmmmmmmmmmmmmmmnMmmmmmmmcccNcMccMnnnnnMnMnnnMnMMn",
"<4tjnMBmmmmmmmmmmmmmmmmmMMnnzkaassssdssdxbcNNcNcMnMnnnnnMnnnnMnn",
"<3tjnMMMmmmmmmmmmmmmmmmMNNMzpq9888088780ydccMNcNnnMnMnMMnMMnnnnM",
"<4tknMMmmmmmmmmmMnnnmmmMVVMse,%%%%&&%%%=9pzmNMccnMnMnnnnnMMnMMnM",
"<4tknMMMmmmmmmmmnnMMmmmMNNnp7%OXoO+OoXo%,ylNNMNcnnnMnMMnnnnMnnnn",
"<4tknMBmmmnmmmmnmmnnmmmmnbsy6%@O++++OO+%,yzmNNMNMnnnMMnnMnnnMnMn",
"<4tdnMMMmmmmmmmmMnMMMmmdaie97,;;:>>>==>,qpbmNNccnMMnnnnMMnMnnnMn",
"<4tknMMmmmmmmmmmnnMMNmca06,58qeeyyeewweyplbmMmNcMnnnnMMnnnnnMMnM",
"<4tknMMMmmmmmmmmmmMMNmly,%#-9azvvxzzlllzbbmmmmcMnnMMnnnnnMMnnnnn",
"<4tknMMMmmmmmmmmmmmMNNlq=+.&0dNVNNMMNMMmMmmnmMmMnMMnMnnMMMnnMnMn",
"<4tknMMMmmmmmnmmmmmNNml0*..&qzVCVVVVNVVNNMmmmcmcnnnnMnMnnnnMnnMn",
"<4tkcMMMmmmmmmmmmmmNNmdq*..*qvVCCVVVVVVVNNmmnMMnMMnMnMnnMnnnnMnn",
"<4tknMMnmmmmmmmmmmmNNMlw-+O*qzNVVVNBNNNNMMMmnnnnnnnnnMnMnnMMMnnM",
"<4tknMNMmmmmmmmmmnmMNMxw;@+*0amNMMnnnnnnnnnnnMnMMnMnnnnnnMMnnnnM",
"<4tkcMMMmmmmmmmmmmMNNMlw>@O%5easaapapppadvMMMMMnnnMnMnMMnnnnMMnn",
"<4txnMMMmmmmnmmmmmmNNMxy>@O@&58888776669udmNNNMmmmmmmmmmmmmmmmcm",
"<4tjnMMMmmmmmmmmmmmNNMdy,#OX+#%%%%%$##$*8pnNVNmmmmnmmmmmmmmmmmmm",
"<4tjnMMmmnnmmmnmmcmNNmly5#oXXOOOOOOooXo#5wzBNMmmmmmmmmmmmmmmmmmm",
"<4tdnMBmnMmmmmmmmmmNNMzy,#OoO@######+++%5qpdnnmmmmmmmmmmmmmmmmmm",
"<4tjnMMMmmmmmmmmmmmNNMzy>@O+$;55555,,,,5599qudnmMmmmmmmmmmmmmmmm",
"<4tjnMMMmmmmmmmmmmmNNMlq>#O$,qiiiiuuiiuy95>58ydnMNmmmmmmmmmmmmmm",
"14txnMMMmmmmnmmmmmmNNMde;@+&8anmnnvbnMndw5#@=9sMNNmmmmmmmmmmmmmm",
"<4tjnMMMmmmmmmmmmmmNNMde:@O*qdNVVNNNVVNve;+.$9snNNmmmmmmmmmcmmmm",
"<4tjnMMMmmmmmmmmmmmNNmlq=OO*wzVCCVVVCCCMe=. #7aMNNmmmmmmmmmmmmmm",
"<4tjnMMMmmmmmmmmmmmmNNlq&oX&qzVCCVVVCCVnu=  #7aMNNNmmmmmmmmcmmmm",
"<4txnMMMmmmmmmmmmmmNNmx0*+O&0lNVVNNNVVBny;O $8smNNmmmmmmmmmmmmmm",
"<3tjnMBmmnmmmmmmmmmNNMzw>$+*9abMnnnnnMndw>#@=9smNNNcmmmmmmmmmmmm",
"<4tknMMMmmmmmmmmmmmNNmvi8>:,0ypaiiiiiiiu95;;7udmmNmcmmmmmmmmmmmm",
"<4tjnmBmmmmmmmmmmmmmMmcdpy087,,,55555555590wisnnNmmmmmmmmmmmmmmm",
"<4tdnMMmmmmmmmmmmmmmmmmnvzay,=++@###@+#%50pdvnnnNmmmmmmmmmmmmmcm",
"<4txnMMMmnmmmmmmmmmmmmmMNNxp7%o XOOOXXo#5yzMNNMncmmmmcmmmmmmmmmm",
"<4tknMMMnnnMnnMnMcNccNMNNNMsq:%%+%%%%++=8pbNNNNcmmmmmmmmmmmcmmmm",
"<4tknMMMMmmmmmmmcNcMNccNNNmzy0,,,,,7,7,8ydmNNNcMmmmmmmmmmmmmmmmm",
"<4tknMMMnMnnnmmncccNcNcNmNmblsppapappppadvmMNNNcmmmmmmmmmmmmmmmm",
"<4tknMMMmnnMMmnMNcMcMcNcmmmmccbcbcccccccbcmmmmcMmmmmmmcmmmmmmmmm",
"<4tkcMMmmmmmnmnmMcNNNcNcbmMMNNNNNNNNNNNNNMmmNcMcmmmmmmmmmmmmmmmm",
"<4tknMBmmmmmmmmmcNcccMcNmmcMcNNNNNNNNNNMNmmmcccNmmmmmmmmmmmmmmmm",
"<4tknMMMmmmnmmmmNccMcNccmmmmNNNNNNmNNNNcMMmmcNNcmcmmmmmmmmmmmmmm",
"<4tknMMMmmmmmmmmccNcNcNcmmmmcccMbmmbcNcNcMcmNccMmmmmmmmmmmmmmmcm",
"<4txvMBmmmnmmmmmcMccNccMNccMMcNcmmmmmmmmNcMccNNcmmmmmcmmmmmmmmmm",
"<4tjnMMMmmmmmmmmNcNccNNcccNccNccmmmmcmmmcNcNMccNmmmmmmmmmmmmmmmm",
"<4txnMBmmmmmmnmmcNNcMccMNccNNccNmmmmmmmmcccNcMccmmmmmmmmmcmmmmmm",
"<4tdnMMMMmmmmmmmcNcccNNccMMcNcMcmmmmmmmmNcMcNcNcmmmmmmmmmmmmmmmm",
"<4tjnMMmmmmmmmmmcNcNcMcNNNcNNccNcNNcmmmmMcNNNcNcmmmcmmmmmmmmmcmm",
"<4tjnMMMmmmmmmmmNcMcNcNcccMccMNcMccMmmmmcNcccMcMmmmMmmmmmmmmmmmm",
"14txnMMmmmmmmnmmNcNcccNcNccNNccNcNMcMcmmNccMcNNccMmcmmmmmmmmmmmm",
"<4tjnMMMmmmmmmmmcMcMcNcMcNcccNccMcMcmmmmccNcNcccNcMMmmmmbmmmmmmm"
};
